<svg width="280" height="156" viewBox="0 0 280 156" fill="none" xmlns="http://www.w3.org/2000/svg">
<path d="M92.2135 107.859L89.4713 117.609H65.401L62.9635 107.859H92.2135Z" fill="#70B9D8"/>
<path d="M92.2135 107.859L89.4713 117.609H65.401L62.9635 107.859H92.2135Z" fill="#70B9D8"/>
<path d="M131.214 34.7344H23.9635C21.3776 34.7344 18.8977 35.7616 17.0692 37.5901C15.2407 39.4186 14.2135 41.8985 14.2135 44.4844L13.9088 107.859H140.659L140.964 44.4844C140.964 41.8985 139.936 39.4186 138.108 37.5901C136.279 35.7616 133.799 34.7344 131.214 34.7344ZM133.651 100.547H21.526V42.0469H133.651V100.547Z" fill="#70B9D8"/>
<path d="M150.714 104.812H143.108L143.401 43.875C143.397 40.6438 142.112 37.546 139.827 35.2611C137.543 32.9763 134.445 31.6911 131.214 31.6875H23.9635C20.7341 31.6905 17.6376 32.9739 15.353 35.2563C13.0684 37.5388 11.782 40.634 11.776 43.8634L11.4829 104.812H4.4635C3.81704 104.812 3.19705 105.069 2.73993 105.526C2.28281 105.984 2.026 106.604 2.026 107.25V117C2.02963 120.231 3.31483 123.329 5.59965 125.614C7.88446 127.899 10.9823 129.184 14.2135 129.188H140.964C144.195 129.184 147.293 127.899 149.577 125.614C151.862 123.329 153.147 120.231 153.151 117V107.25C153.151 106.604 152.894 105.984 152.437 105.526C151.98 105.069 151.36 104.812 150.714 104.812ZM16.651 43.875C16.6532 41.9363 17.4243 40.0776 18.7952 38.7067C20.1661 37.3358 22.0248 36.5647 23.9635 36.5625H131.214C133.15 36.564 135.008 37.3334 136.378 38.7019C137.749 40.0704 138.521 41.9265 138.526 43.8634L138.233 104.812H16.3582L16.651 43.875ZM88.9957 109.688L87.6246 114.562H67.3041L66.0853 109.688H88.9957ZM148.276 117C148.274 118.939 147.503 120.797 146.132 122.168C144.761 123.539 142.902 124.31 140.964 124.312H14.2135C12.2748 124.31 10.4161 123.539 9.04519 122.168C7.6743 120.797 6.90318 118.939 6.901 117V109.688H61.0604L63.0363 117.591C63.1681 118.118 63.4725 118.587 63.9009 118.921C64.3294 119.256 64.8574 119.437 65.401 119.438H89.4713C90.0027 119.437 90.5194 119.264 90.943 118.943C91.3665 118.622 91.6735 118.171 91.8174 117.66L94.0599 109.688H148.276V117Z" fill="#01549B"/>
<path d="M136.089 99.9375V41.4375C136.089 40.791 135.832 40.171 135.375 39.7139C134.917 39.2568 134.297 39 133.651 39H21.526C20.8795 39 20.2595 39.2568 19.8024 39.7139C19.3453 40.171 19.0885 40.791 19.0885 41.4375V99.9375C19.0885 100.584 19.3453 101.204 19.8024 101.661C20.2595 102.118 20.8795 102.375 21.526 102.375H133.651C134.297 102.375 134.917 102.118 135.375 101.661C135.832 101.204 136.089 100.584 136.089 99.9375ZM131.214 97.5H23.9635V43.875H131.214V97.5Z" fill="#01549B"/>
<path d="M31.276 112.125H14.2135C13.567 112.125 12.947 112.382 12.4899 112.839C12.0328 113.296 11.776 113.916 11.776 114.562C11.776 115.209 12.0328 115.829 12.4899 116.286C12.947 116.743 13.567 117 14.2135 117H31.276C31.9225 117 32.5425 116.743 32.9996 116.286C33.4567 115.829 33.7135 115.209 33.7135 114.562C33.7135 113.916 33.4567 113.296 32.9996 112.839C32.5425 112.382 31.9225 112.125 31.276 112.125Z" fill="#01549B"/>
<path d="M41.026 112.125H38.5885C37.942 112.125 37.322 112.382 36.8649 112.839C36.4078 113.296 36.151 113.916 36.151 114.562C36.151 115.209 36.4078 115.829 36.8649 116.286C37.322 116.743 37.942 117 38.5885 117H41.026C41.6725 117 42.2925 116.743 42.7496 116.286C43.2067 115.829 43.4635 115.209 43.4635 114.562C43.4635 113.916 43.2067 113.296 42.7496 112.839C42.2925 112.382 41.6725 112.125 41.026 112.125Z" fill="#01549B"/>
<rect x="35.4546" y="58.7533" width="85.0909" height="18.2338" fill="#D8DBDF"/>
<path d="M42.8599 68.4173L39.6763 67.5384L40.3111 65.6927L43.4263 66.972L43.1821 63.5345H45.272L45.0181 67.0404L48.0454 65.7904L48.6802 67.6556L45.4575 68.5345L47.5962 71.1224L45.9068 72.2747L44.1196 69.4036L42.3228 72.1771L40.6333 71.0736L42.8599 68.4173ZM56.0568 68.4173L52.8732 67.5384L53.5079 65.6927L56.6232 66.972L56.379 63.5345H58.4689L58.215 67.0404L61.2423 65.7904L61.8771 67.6556L58.6544 68.5345L60.7931 71.1224L59.1036 72.2747L57.3165 69.4036L55.5196 72.1771L53.8302 71.0736L56.0568 68.4173ZM69.2536 68.4173L66.07 67.5384L66.7048 65.6927L69.82 66.972L69.5759 63.5345H71.6657L71.4118 67.0404L74.4392 65.7904L75.0739 67.6556L71.8513 68.5345L73.99 71.1224L72.3005 72.2747L70.5134 69.4036L68.7165 72.1771L67.0271 71.0736L69.2536 68.4173ZM82.4505 68.4173L79.2669 67.5384L79.9017 65.6927L83.0169 66.972L82.7728 63.5345H84.8626L84.6087 67.0404L87.6361 65.7904L88.2708 67.6556L85.0482 68.5345L87.1868 71.1224L85.4974 72.2747L83.7103 69.4036L81.9134 72.1771L80.2239 71.0736L82.4505 68.4173ZM95.6474 68.4173L92.4638 67.5384L93.0986 65.6927L96.2138 66.972L95.9696 63.5345H98.0595L97.8056 67.0404L100.833 65.7904L101.468 67.6556L98.245 68.5345L100.384 71.1224L98.6943 72.2747L96.9071 69.4036L95.1103 72.1771L93.4208 71.0736L95.6474 68.4173ZM108.844 68.4173L105.661 67.5384L106.295 65.6927L109.411 66.972L109.167 63.5345H111.256L111.002 67.0404L114.03 65.7904L114.665 67.6556L111.442 68.5345L113.581 71.1224L111.891 72.2747L110.104 69.4036L108.307 72.1771L106.618 71.0736L108.844 68.4173Z" fill="#0275D8"/>
<g clip-path="url(#clip0)">
<path d="M175.426 33.9718H181.043H216.783L219.847 35.5036L221.889 39.0776V47.2468H170.831V40.0988L171.852 36.5247L175.426 33.9718Z" fill="#70B9D8"/>
<path d="M169.81 123.323V116.685V114.133H199.424L212.188 125.365L213.72 128.939H179L173.895 127.408L169.81 123.323Z" fill="#70B9D8"/>
<path d="M191.566 119.991C190.528 119.991 189.687 120.832 189.687 121.871C189.687 122.91 190.528 123.751 191.566 123.751H201.014C202.052 123.751 202.893 122.91 202.893 121.871C202.893 120.832 202.052 119.991 201.014 119.991H191.566Z" fill="#01549B"/>
<path d="M199.654 38.7497H192.902C191.863 38.7497 191.022 39.5906 191.022 40.6293C191.022 41.668 191.863 42.5088 192.902 42.5088H199.654C200.692 42.5088 201.533 41.668 201.533 40.6293C201.533 39.5906 200.692 38.7497 199.654 38.7497Z" fill="#01549B"/>
<path d="M210.04 38.6508C208.927 38.6508 208.037 39.5411 208.037 40.654C208.037 41.7669 208.927 42.6572 210.04 42.6572C211.153 42.6572 212.044 41.7669 212.044 40.654C212.044 39.5411 211.128 38.6508 210.04 38.6508Z" fill="#01549B"/>
<path d="M263.732 152.76L242.166 131.195C232.892 119.398 248.374 112.3 236.874 87.3217C234.871 81.584 232.224 74.1152 232.2 74.0658C230.74 69.8862 227.946 66.2755 224.286 63.7776V41.569C224.286 36.2024 220.156 31.825 215.086 31.825H177.47C172.4 31.825 168.27 36.2024 168.27 41.569V66.0776H172.029V49.4335H220.551V109.407L212.514 104.386C212.514 104.386 208.359 101.765 206.85 100.825C204.699 99.3904 202.423 97.8324 199.876 97.8324C195.795 97.8324 192.308 101.245 192.209 105.301C192.11 108.788 194.336 110.816 196.661 112.968H184.444H180.66H172.004V65.855H168.27V121.203C168.27 126.57 172.4 130.947 177.47 130.947H184.691C186.472 134.707 189.514 137.674 193.347 139.405C205.49 144.525 207.122 148.877 215.185 155.505C215.481 156.322 231.581 156 231.581 156L231.507 152.241H217.163L205.465 141.705C206.009 140.766 191.195 135.572 188.97 130.947C188.97 130.947 215.704 130.923 215.976 130.898L220.007 134.608C221.788 136.24 224.335 133.495 222.554 131.838L217.856 127.51L197.081 108.269C195.573 106.736 195.622 104.262 197.106 102.779C198.664 101.221 200.667 101.468 202.399 102.556L221.145 114.229C222.332 115.317 224.31 114.476 224.31 112.844V68.6002C226.264 70.455 227.773 72.755 228.663 75.3271C230.246 80.298 236.701 96.6453 237.195 101.493C239.693 115.565 230.048 124.319 239.495 133.866L257.871 152.216H231.334V155.975H262.421C264.053 155.975 264.894 153.923 263.732 152.76ZM200.692 116.752L211.97 127.164H177.47C174.477 127.164 172.029 124.493 172.029 121.179V116.727L200.692 116.752ZM220.551 45.6744H172.029V41.569C172.029 38.2798 174.452 35.5841 177.47 35.5841H215.135C218.128 35.5841 220.576 38.2551 220.576 41.5443L220.551 45.6744Z" fill="#01549B"/>
<path d="M195.961 63.3766C188.782 63.3766 182.961 69.1973 182.961 76.3766C182.961 83.5567 188.782 89.3766 195.961 89.3766C203.141 89.3766 208.961 83.5575 208.961 76.3766C208.961 69.1973 203.141 63.3766 195.961 63.3766ZM195.961 86.9391C190.127 86.9391 185.399 82.2103 185.399 76.3766C185.399 70.5429 190.127 65.8142 195.961 65.8142C201.795 65.8142 206.524 70.5429 206.524 76.3766C206.524 82.2103 201.795 86.9391 195.961 86.9391Z" fill="#01549B"/>
<path d="M191.307 76.2173L190.183 77.2949L193.769 80.71L201.739 73.1209L200.615 72.0433L193.769 78.5623L191.307 76.2173Z" fill="#01549B" stroke="#01549B" stroke-linejoin="round"/>
</g>
<defs>
<clipPath id="clip0">
<rect width="126.623" height="126.623" fill="white" transform="translate(152.961 29.3766)"/>
</clipPath>
</defs>
</svg>
