<svg width="385" height="208" viewBox="0 0 385 208" fill="none" xmlns="http://www.w3.org/2000/svg">
<g clip-path="url(#clip0)">
<path d="M324.07 199.421C363.664 198.62 392.931 161.332 383.362 122.829C383.207 122.192 383.035 121.554 382.863 120.917C370.147 74.7484 321.637 94.2581 295.448 47.5037C269.258 0.749367 166.065 -25.5392 123.892 36.2716C81.7105 98.0739 20.2006 87.3069 13.2363 131.288C6.28051 175.26 31.2318 204.77 110.23 203.486C166.822 202.556 270.049 200.506 324.07 199.421Z" fill="#E3ECFF"/>
<path d="M179.332 32.3008H218.384C218.384 32.3008 219.682 19.1824 210.285 16.3916C200.878 13.6008 198.892 19.1135 198.892 19.1135C198.892 19.1135 196.837 7.81248 183.674 8.89779C170.51 9.9831 170.51 22.154 170.51 22.154C170.51 22.154 159.23 20.5605 157.785 32.3008H179.332Z" fill="#CCDAFD"/>
<path d="M21.155 118.505H45.0058C45.0058 118.505 45.7968 110.495 40.062 108.789C34.3185 107.084 33.1062 110.452 33.1062 110.452C33.1062 110.452 31.8509 103.552 23.8118 104.215C15.7727 104.879 15.7727 112.312 15.7727 112.312C15.7727 112.312 8.88571 111.339 8.00012 118.505H21.155Z" fill="#CCDAFD"/>
<path d="M342.737 32.2986H371.514C371.514 32.2986 372.477 22.6342 365.547 20.5756C358.617 18.5255 357.147 22.5825 357.147 22.5825C357.147 22.5825 355.634 14.2532 345.935 15.0543C336.236 15.8553 336.236 24.8221 336.236 24.8221C336.236 24.8221 327.922 23.6506 326.856 32.2986H342.737Z" fill="#CCDAFD"/>
<path d="M183.294 149.237C185.287 149.237 186.905 147.615 186.905 145.619C186.905 143.627 185.287 142.001 183.294 142.001C181.301 142.001 179.682 143.622 179.682 145.619C179.682 147.615 181.301 149.237 183.294 149.237ZM183.294 144.233C184.059 144.233 184.682 144.856 184.682 145.623C184.682 146.39 184.059 147.014 183.294 147.014C182.528 147.014 181.906 146.39 181.906 145.623C181.906 144.856 182.528 144.233 183.294 144.233Z" fill="#0275D8"/>
<path d="M214.388 142.005C212.4 142.005 210.777 143.627 210.777 145.623C210.777 147.62 212.395 149.241 214.388 149.241C216.381 149.241 218 147.62 218 145.623C218 143.627 216.381 142.005 214.388 142.005ZM214.388 147.014C213.623 147.014 213 146.39 213 145.623C213 144.856 213.623 144.233 214.388 144.233C215.154 144.233 215.776 144.856 215.776 145.623C215.776 146.39 215.154 147.014 214.388 147.014Z" fill="#0275D8"/>
<path d="M227.673 130.697C226.338 128.426 224.084 127.275 220.968 127.275H212.757C211.304 124.223 204.964 112 196.8 112H171.11C170.496 112 170 112.497 170 113.112V128.387V137.502C170 143.696 170.004 146.081 173.982 146.6C174.473 151.312 178.459 155 183.294 155C188.08 155 192.035 151.382 192.588 146.735H196.883C197.497 146.735 197.993 146.238 197.993 145.623C197.993 145.009 197.497 144.512 196.883 144.512H192.588C192.035 139.865 188.08 136.246 183.294 136.246C178.551 136.246 174.621 139.799 174.016 144.389C172.263 144.167 172.224 143.304 172.224 137.502V133.984H187.332C187.945 133.984 188.441 133.487 188.441 132.872C188.441 132.258 187.945 131.761 187.332 131.761H172.224V129.503H220.968C223.222 129.503 224.771 130.213 225.715 131.761H196.439C195.826 131.761 195.33 132.258 195.33 132.872C195.33 133.487 195.826 133.984 196.439 133.984H226.555C226.773 134.978 226.873 136.142 226.873 137.502C226.873 141.774 226.729 143.879 223.644 144.228C222.97 139.716 219.075 136.246 214.389 136.246C209.602 136.246 205.647 139.865 205.094 144.512H200.547C199.933 144.512 199.437 145.009 199.437 145.623C199.437 146.238 199.933 146.735 200.547 146.735H205.094C205.647 151.382 209.602 155 214.389 155C219.271 155 223.292 151.238 223.714 146.456C229.096 145.941 229.101 141.473 229.101 137.502C229.096 134.511 228.644 132.349 227.673 130.697ZM183.294 138.47C187.232 138.47 190.434 141.678 190.434 145.623C190.434 149.568 187.232 152.777 183.294 152.777C179.356 152.777 176.153 149.568 176.153 145.623C176.153 141.678 179.356 138.47 183.294 138.47ZM188.515 127.271H172.224V114.223H188.515V127.271ZM190.734 127.271V114.223H196.8C202.958 114.223 208.34 123.504 210.272 127.271H190.734ZM214.389 152.777C210.451 152.777 207.248 149.568 207.248 145.623C207.248 141.678 210.451 138.47 214.389 138.47C218.327 138.47 221.529 141.678 221.529 145.623C221.529 149.564 218.327 152.777 214.389 152.777Z" fill="#0275D8"/>
<path d="M190.882 131.756C190.269 131.756 189.773 132.253 189.773 132.868C189.773 133.483 190.269 133.98 190.882 133.98H192.993C193.606 133.98 194.102 133.483 194.102 132.868C194.102 132.253 193.606 131.756 192.993 131.756H190.882Z" fill="#0275D8"/>
<path d="M151.073 45.8946C150.708 45.3426 150.087 45.016 149.427 45.016H127.315V33.9827C127.315 32.8864 126.43 32 125.336 32H60.9791C59.8848 32 59 32.8864 59 33.9827V82.5789C59 83.6752 59.8848 84.5616 60.9791 84.5616H66.9088C67.8324 89.1336 71.8683 92.578 76.6958 92.578C81.5234 92.578 85.5593 89.1258 86.4829 84.5616H93.1576C94.252 84.5616 95.1367 83.6752 95.1367 82.5789C95.1367 81.4826 94.252 80.5962 93.1576 80.5962H86.4829C85.5593 76.0243 81.5234 72.5797 76.6958 72.5797C71.8683 72.5797 67.8324 76.032 66.9088 80.5962H62.9583V35.9654H123.349V47.0065V80.5962H100.205C99.1106 80.5962 98.2258 81.4826 98.2258 82.5789C98.2258 83.6752 99.1106 84.5616 100.205 84.5616H125.328H129.45C130.373 89.1336 134.409 92.578 139.237 92.578C144.064 92.578 148.1 89.1258 149.024 84.5616H162.42C163.514 84.5616 164.399 83.6752 164.399 82.5789V66.3828C164.399 65.9862 164.282 65.6052 164.057 65.2787L151.073 45.8946ZM76.6958 76.5374C80.0177 76.5374 82.7186 79.2433 82.7186 82.5711C82.7186 85.899 80.0177 88.6048 76.6958 88.6048C73.374 88.6048 70.6731 85.899 70.6731 82.5711C70.6731 79.251 73.374 76.5374 76.6958 76.5374ZM139.244 88.6126C135.923 88.6126 133.222 85.9068 133.222 82.5789C133.222 79.251 135.923 76.5452 139.244 76.5452C142.566 76.5452 145.267 79.251 145.267 82.5789C145.267 85.899 142.566 88.6126 139.244 88.6126ZM160.448 80.5884H149.031C148.108 76.0165 144.072 72.572 139.244 72.572C134.417 72.572 130.381 76.0242 129.457 80.5884H127.315V48.9892H148.372L160.441 66.9815V80.5884H160.448Z" fill="#0275D8"/>
<path d="M69.8585 54.6263H75.6096C76.704 54.6263 77.5888 53.7399 77.5888 52.6436C77.5888 51.5473 76.704 50.6609 75.6096 50.6609H69.8585C68.7641 50.6609 67.8793 51.5473 67.8793 52.6436C67.8793 53.7399 68.7641 54.6263 69.8585 54.6263Z" fill="#0275D8"/>
<path d="M116.465 50.6609H82.3848C81.2904 50.6609 80.4056 51.5473 80.4056 52.6436C80.4056 53.7399 81.2904 54.6263 82.3848 54.6263H116.465C117.559 54.6263 118.444 53.7399 118.444 52.6436C118.444 51.5473 117.551 50.6609 116.465 50.6609Z" fill="#0275D8"/>
<path d="M116.465 61.9275H110.722C109.627 61.9275 108.743 62.8139 108.743 63.9102C108.743 65.0065 109.627 65.8929 110.722 65.8929H116.465C117.559 65.8929 118.444 65.0065 118.444 63.9102C118.444 62.8217 117.552 61.9275 116.465 61.9275Z" fill="#0275D8"/>
<path d="M69.8585 65.9008H103.938C105.033 65.9008 105.918 65.0144 105.918 63.918C105.918 62.8217 105.033 61.9353 103.938 61.9353H69.8585C68.7641 61.9353 67.8793 62.8217 67.8793 63.918C67.8793 65.0144 68.7641 65.9008 69.8585 65.9008Z" fill="#0275D8"/>
<path d="M145.639 52.3948H132.903C131.808 52.3948 130.924 53.2812 130.924 54.3775V65.1075C130.924 66.2039 131.808 67.0903 132.903 67.0903H152.842C153.579 67.0903 154.246 66.6859 154.596 66.0406C154.937 65.3952 154.898 64.6099 154.487 64.0034L147.285 53.2734C146.92 52.7291 146.299 52.3948 145.639 52.3948ZM134.89 63.1248V56.368H144.591L149.124 63.1248H134.89Z" fill="#0275D8"/>
<g clip-path="url(#clip1)">
<path d="M363.412 181.163C359.089 181.061 354.831 182.231 351.165 184.526C350.47 184.909 349.785 185.287 349.064 185.634L364.24 167.389C365.044 166.449 365.227 165.127 364.709 164.003C364.19 162.88 363.065 162.162 361.828 162.164H348.094L331.408 150.028L330.6 148.415C329 145.189 325.705 143.153 322.105 143.165H305.81L304.227 139.998H312.748C313.622 139.998 314.331 139.289 314.331 138.415C314.331 137.541 313.622 136.832 312.748 136.832H295.332C294.457 136.832 293.749 137.541 293.749 138.415C293.749 139.29 294.457 139.998 295.332 139.998H300.687L302.27 143.165H295.332C292.709 143.165 290.582 145.291 290.582 147.915C290.582 150.538 292.709 152.664 295.332 152.664H297.52L292.77 162.164H291.374C290.378 162.166 289.44 162.635 288.841 163.431L285.041 168.497H282.318C281.778 168.497 281.276 168.771 280.985 169.225L273.284 181.223C272.737 181.191 272.186 181.163 271.583 181.163C270.709 181.163 270 181.872 270 182.746C270 183.621 270.709 184.329 271.583 184.329C275.369 184.238 279.097 185.272 282.296 187.3C285.96 189.595 290.218 190.765 294.54 190.663C297.928 190.761 301.291 190.046 304.346 188.577L304.368 188.566C305.212 188.159 306 187.727 306.779 187.3C309.975 185.273 313.701 184.239 317.485 184.329C321.272 184.238 325.002 185.272 328.202 187.3C331.869 189.596 336.129 190.765 340.455 190.663C344.778 190.764 349.036 189.595 352.701 187.3C355.899 185.273 359.626 184.239 363.412 184.329C364.286 184.329 364.995 183.621 364.995 182.746C364.995 181.872 364.286 181.163 363.412 181.163ZM329.649 152.664L334.003 155.831H315.914C315.04 155.831 314.331 155.122 314.331 154.248V152.665H329.649V152.664ZM295.332 149.498C294.457 149.498 293.749 148.789 293.749 147.915C293.749 147.04 294.457 146.332 295.332 146.332H322.105C324.364 146.328 326.451 147.537 327.572 149.498H295.332V149.498ZM301.06 152.664H311.165V154.248C311.165 156.871 313.291 158.997 315.914 158.997H338.357L342.711 162.164H296.31L301.06 152.664ZM291.374 165.33H323.83V166.914C323.83 167.788 323.122 168.497 322.247 168.497H288.999L291.374 165.33ZM340.455 187.496C336.665 187.589 332.933 186.555 329.731 184.526C326.066 182.231 321.808 181.062 317.485 181.163C313.164 181.062 308.909 182.231 305.246 184.526C302.05 186.553 298.324 187.587 294.54 187.496C290.754 187.587 287.025 186.554 283.827 184.526C281.639 183.204 279.253 182.242 276.761 181.676L283.182 171.663H322.247C324.87 171.663 326.997 169.537 326.997 166.914V165.33H331.747V170.08C331.747 170.955 332.456 171.663 333.33 171.663C334.204 171.663 334.913 170.955 334.913 170.08V165.33H338.08V170.08C338.08 170.955 338.788 171.663 339.663 171.663C340.537 171.663 341.246 170.955 341.246 170.08V165.33H344.413V170.08C344.413 170.955 345.121 171.663 345.996 171.663C346.87 171.663 347.579 170.955 347.579 170.08V165.34H361.814L343.57 187.293C342.537 187.43 341.497 187.497 340.455 187.496Z" fill="#0275D8"/>
<path d="M363.412 190.662C359.089 190.561 354.831 191.73 351.165 194.025C347.967 196.052 344.24 197.085 340.455 196.995C336.667 197.087 332.938 196.053 329.738 194.025C326.071 191.729 321.81 190.56 317.485 190.662C313.164 190.561 308.909 191.73 305.247 194.025C302.05 196.052 298.325 197.086 294.541 196.995C290.754 197.087 287.026 196.053 283.827 194.025C280.163 191.73 275.906 190.56 271.584 190.662C270.709 190.662 270 191.371 270 192.246C270 193.12 270.709 193.829 271.584 193.829C275.369 193.738 279.097 194.771 282.296 196.799C285.96 199.095 290.218 200.264 294.541 200.162C298.862 200.264 303.117 199.094 306.779 196.797C309.976 194.771 313.702 193.738 317.485 193.829C321.273 193.737 325.002 194.771 328.202 196.799C331.869 199.095 336.13 200.265 340.455 200.162C344.778 200.264 349.036 199.094 352.701 196.799C355.9 194.772 359.627 193.739 363.412 193.829C364.286 193.829 364.995 193.12 364.995 192.246C364.995 191.371 364.286 190.662 363.412 190.662Z" fill="#0275D8"/>
</g>
<path d="M83.3683 152H49.6317C45.4236 152 42 155.423 42 159.632V193.368C42 197.577 45.4236 201 49.6317 201H83.3683C87.5764 201 91 197.577 91 193.368V159.632C91 155.423 87.5764 152 83.3683 152ZM89.5645 193.368C89.5645 196.785 86.7849 199.564 83.3683 199.564H49.6317C46.2151 199.564 43.4355 196.785 43.4355 193.368V159.632C43.4355 156.215 46.2151 153.436 49.6317 153.436H83.3683C86.7849 153.436 89.5645 156.215 89.5645 159.632V193.368Z" fill="#0275D8" stroke="#0275D8"/>
<path d="M83.3684 155.408H49.6317C47.3027 155.408 45.4079 157.303 45.4079 159.632V161.807C45.4079 162.203 45.7293 162.524 46.1257 162.524C46.5221 162.524 46.8434 162.203 46.8434 161.807V159.632C46.8434 158.094 48.0942 156.844 49.6317 156.844H83.3683C84.9056 156.844 86.1565 158.094 86.1565 159.632V193.368C86.1565 194.906 84.9057 196.157 83.3683 196.157H49.6317C48.0943 196.157 46.8434 194.906 46.8434 193.368V165.162C46.8434 164.766 46.5221 164.444 46.1257 164.444C45.7293 164.444 45.4079 164.766 45.4079 165.162V193.368C45.4079 195.697 47.3026 197.592 49.6317 197.592H83.3683C85.6973 197.592 87.592 195.697 87.592 193.368V159.632C87.592 157.303 85.6974 155.408 83.3684 155.408Z" fill="#0275D8" stroke="#0275D8"/>
<path d="M78.0436 175.559C76.0373 174.143 72.6617 173.603 69.9583 174.22C69.6796 173.793 69.3242 173.421 68.9115 173.123C69.4496 172.012 70.3869 171.194 72.0084 170.39C72.8614 169.967 73.9231 169.441 73.9231 168.045C73.9231 164.233 70.0863 161.874 66.5315 161.874C62.4558 161.874 59.14 164.642 59.14 168.045C59.14 169.735 59.968 171.989 61.2495 173.786C61.6611 174.363 62.0984 174.871 62.5534 175.304C62.4643 175.606 62.4081 175.923 62.3912 176.249C61.2563 176.167 60.1865 175.655 58.8628 174.586L58.845 174.572C58.1124 173.98 57.2006 173.243 55.9321 173.826C52.4688 175.419 51.928 179.891 53.4131 183.12C54.983 186.535 58.7842 188.786 62.1081 187.258C64.4519 186.18 66.7619 183.215 67.4574 180.474C67.6649 180.425 67.8663 180.36 68.0604 180.281C68.7387 181.293 69.0533 182.499 68.7077 184.721C68.5615 185.661 68.3794 186.832 69.5199 187.637C72.5473 189.774 76.6982 188.169 78.8241 185.156C79.888 183.649 80.4538 181.791 80.3765 180.059C80.2917 178.159 79.4632 176.56 78.0436 175.559ZM62.4183 172.952C61.3161 171.406 60.5756 169.434 60.5756 168.045C60.5756 165.434 63.2475 163.309 66.5316 163.309C70.2105 163.309 72.4877 165.767 72.4877 168.045C72.4877 168.491 72.2631 168.662 71.3708 169.104C69.456 170.053 68.295 171.094 67.6178 172.499C67.2639 172.399 66.8914 172.345 66.5061 172.345C65.1769 172.345 63.9934 172.978 63.2394 173.958C62.9577 173.659 62.6829 173.323 62.4183 172.952ZM61.5084 185.953C58.9294 187.139 55.949 185.199 54.7174 182.521C53.1804 179.178 54.4626 176.082 56.532 175.131C56.9373 174.944 57.1826 175.074 57.9428 175.688L57.9608 175.703C59.6197 177.043 61.034 177.659 62.5733 177.696C63.0437 179.196 64.3505 180.328 65.9447 180.547C65.1875 182.911 63.131 185.207 61.5084 185.953ZM66.5061 179.15C65.0255 179.15 63.8211 177.946 63.8211 176.465C63.8211 174.985 65.0255 173.781 66.5061 173.781C67.9865 173.781 69.191 174.985 69.191 176.465C69.191 177.961 67.9688 179.15 66.5061 179.15ZM77.6514 184.328C75.9599 186.725 72.6794 188.11 70.3479 186.464C69.9835 186.207 69.9735 185.925 70.1265 184.941C70.487 182.622 70.2407 180.993 69.2732 179.516C70.3686 178.521 70.8518 177.025 70.5271 175.569C72.7746 175.14 75.6281 175.611 77.216 176.732C78.2647 177.472 78.8779 178.676 78.9426 180.123C79.0059 181.543 78.5354 183.076 77.6514 184.328Z" fill="#0275D8" stroke="#0275D8"/>
<path d="M79.1006 192.53C79.1006 194.087 80.3671 195.354 81.9239 195.354C83.4807 195.354 84.7471 194.087 84.7471 192.53C84.7471 190.974 83.4807 189.707 81.9239 189.707C80.3671 189.707 79.1006 190.974 79.1006 192.53ZM83.3116 192.53C83.3116 193.295 82.689 193.918 81.9239 193.918C81.1587 193.918 80.5362 193.295 80.5362 192.53C80.5362 191.765 81.1587 191.143 81.9239 191.143C82.689 191.143 83.3116 191.765 83.3116 192.53Z" fill="#0275D8" stroke="#0275D8"/>
<path d="M79.2624 165.52C78.9536 165.768 78.9049 166.22 79.1534 166.529C81.4955 169.438 82.7334 172.954 82.7334 176.697C82.7334 185.645 75.4539 192.924 66.5061 192.924C62.7633 192.924 59.2472 191.686 56.3379 189.344C56.0292 189.096 55.5773 189.145 55.3287 189.453C55.0802 189.762 55.129 190.214 55.4377 190.463C58.5596 192.976 62.4904 194.36 66.5061 194.36C76.2454 194.36 84.1689 186.436 84.1689 176.697C84.1689 172.681 82.7848 168.751 80.2715 165.629C80.0231 165.32 79.5713 165.271 79.2624 165.52Z" fill="#0275D8" stroke="#0275D8"/>
<path d="M77.8211 163.134C74.6554 160.49 70.6369 159.034 66.5061 159.034C56.7667 159.034 48.8432 166.958 48.8432 176.697C48.8432 180.828 50.2991 184.846 52.9427 188.012C53.0847 188.182 53.2886 188.27 53.4941 188.27C53.6563 188.27 53.8195 188.215 53.9538 188.103C54.2581 187.849 54.2988 187.396 54.0447 187.092C51.6162 184.184 50.2787 180.492 50.2787 176.697C50.2787 167.749 57.5583 160.47 66.5061 160.47C70.3013 160.47 73.9929 161.807 76.901 164.236C77.2053 164.49 77.6579 164.449 77.912 164.145C78.1661 163.84 78.1253 163.388 77.8211 163.134Z" fill="#0275D8" stroke="#0275D8"/>
</g>
<path d="M254 43.8705C254.656 42.4587 255.763 41.9982 257.304 42C283.796 42.0305 310.288 42.0287 336.78 42.0036C338.293 42.0018 339.391 42.4479 340 43.8705C340 54.0062 340 64.1437 340 74.2793C339.219 76.3595 337.452 76.2323 335.54 76.1212C335.773 76.5512 335.931 76.8594 336.103 77.1586C336.836 78.4468 337.585 79.7261 338.307 81.0197C339.104 82.4477 338.762 83.9384 337.492 84.6694C336.214 85.404 334.756 84.9615 333.933 83.546C332.64 81.3225 331.351 79.0937 330.11 76.8415C329.807 76.2932 329.467 76.1338 328.865 76.1356C317.785 76.1535 306.703 76.1535 295.623 76.1356C294.966 76.1338 294.575 76.304 294.242 76.9114C292.991 79.1904 291.683 81.4408 290.375 83.6894C289.78 84.7106 288.718 85.1908 287.682 84.9704C286.588 84.7375 285.729 83.9008 285.674 82.7864C285.645 82.2094 285.822 81.559 286.095 81.0412C286.937 79.4377 287.869 77.8825 288.82 76.2126C280.541 76.2126 272.372 76.2126 264.102 76.2126C264.102 77.9147 264.123 79.5864 264.094 81.2562C264.071 82.6108 263.109 83.6213 261.824 83.718C260.266 83.8363 259.097 82.7595 259.054 81.1416C259.033 80.3299 259.047 79.5183 259.047 78.7066C259.047 77.8968 259.047 77.0869 259.047 76.1875C257.166 76.0298 254.953 76.7304 254 74.2793C254 64.1437 254 54.0062 254 43.8705ZM334.895 71.0507C334.895 63.0292 334.895 55.0705 334.895 47.1297C309.589 47.1297 284.355 47.1297 259.092 47.1297C259.092 55.126 259.092 63.0633 259.092 71.0507C284.371 71.0507 309.606 71.0507 334.895 71.0507Z" fill="#0275D8"/>
<path d="M302.088 96.3748C297.167 96.3766 293.202 92.4241 293.215 87.5327C293.228 82.6826 297.193 78.6942 302.021 78.6763C306.941 78.6584 310.926 82.6432 310.933 87.5901C310.939 92.4205 306.959 96.373 302.088 96.3748ZM298.3 87.5399C298.293 89.6433 299.972 91.3311 302.073 91.3329C304.144 91.3347 305.886 89.5968 305.873 87.5435C305.861 85.4508 304.159 83.7504 302.077 83.7486C299.98 83.7486 298.307 85.4275 298.3 87.5399Z" fill="#0275D8"/>
<path d="M331.16 87.5595C331.115 92.5422 327.161 96.432 322.191 96.3783C317.294 96.3263 313.426 92.3451 313.463 87.3947C313.499 82.5875 317.563 78.6225 322.397 78.6798C327.265 78.7389 331.203 82.7273 331.16 87.5595ZM326.091 87.6312C326.141 85.5313 324.516 83.8166 322.406 83.745C320.356 83.6751 318.57 85.3772 318.518 87.452C318.466 89.5268 320.152 91.2916 322.225 91.331C324.339 91.3705 326.041 89.7418 326.091 87.6312Z" fill="#0275D8"/>
<defs>
<clipPath id="clip0">
<rect width="385" height="208" fill="white"/>
</clipPath>
<clipPath id="clip1">
<rect width="95" height="95" fill="white" transform="translate(270 121)"/>
</clipPath>
</defs>
</svg>
