<svg width="327" height="240" viewBox="0 0 327 240" fill="none" xmlns="http://www.w3.org/2000/svg">
<path opacity="0.18" d="M237.581 93.1265C244.369 104.001 248.172 117.368 258.46 124.929C272.904 135.507 294.825 130.669 308.842 141.797C315.318 146.939 319.032 154.738 322.016 162.447C326.369 173.714 329.517 186.745 324.082 197.529C317.802 209.986 302.588 214.75 288.832 216.817C269.781 219.728 250.304 219.999 231.622 224.796C224.17 226.715 216.866 229.339 209.332 230.741C201.799 232.144 194.224 232.283 186.633 232.152C149.945 231.501 113.691 224.101 79.6801 210.322C52.5217 199.308 25.8632 183.145 11.2716 157.715C1.73967 140.988 -1.89522 121.542 0.950914 102.5C2.54124 92.085 6.13996 81.8588 12.2717 73.3137C20.8709 61.3572 34.0362 53.1566 48.0048 48.4494C61.9734 43.7422 76.8192 42.2005 91.5501 41.4214C121.955 39.7813 160.319 37.0505 188.478 50.4422C196.872 54.4441 203.037 59.8975 209.792 66.0808C219.481 74.9047 230.515 81.8588 237.581 93.1265Z" fill="#2196F3"/>
<path opacity="0.43" d="M199.635 0H63.7031C58.714 0 54.6694 4.04605 54.6694 9.03711V225.501C54.6694 230.492 58.714 234.538 63.7031 234.538H199.635C204.624 234.538 208.669 230.492 208.669 225.501V9.03711C208.669 4.04605 204.624 0 199.635 0Z" fill="#2196F3"/>
<path opacity="0.34" d="M204.66 160.774L205.685 176.478C203.63 175.699 201.745 174.529 200.135 173.034C191.241 165.456 185.223 155.148 179.502 145.004C174.638 136.349 169.875 127.648 165.213 118.901C163.508 115.711 161.738 112.406 158.893 110.167C161.574 108.65 164.926 107.789 167.714 109.101C171.116 110.7 172.394 114.752 174.165 118.065C176.009 121.517 178.657 124.461 181.01 127.586C184.054 131.628 186.616 136.012 188.642 140.649C188.99 141.581 189.476 142.454 190.085 143.241C191.023 144.157 192.139 144.872 193.364 145.34C197.079 147.071 200.687 149.024 204.168 151.187C205.394 151.875 206.501 152.755 207.447 153.795C208.597 155.227 209.144 157.051 208.972 158.879C208.693 162.102 207.16 160.585 204.66 160.774Z" fill="#2196F3"/>
<path opacity="0.34" d="M81.6803 154.533C80.1638 154.869 78.5407 155.279 77.5816 156.468C76.6224 157.657 76.7618 159.888 78.2374 160.355C78.6614 160.455 79.0976 160.494 79.5326 160.47C85.8447 160.61 89.7959 167.9 95.9277 169.302C98.1447 169.698 100.421 169.609 102.6 169.04C104.547 168.736 106.397 167.984 108.003 166.842C109.118 165.94 110.2 164.628 111.626 164.767C113.265 164.923 114.02 166.826 114.389 168.425C117.725 182.956 116.848 198.078 115.889 212.962C115.577 217.883 115.471 223.016 115.38 227.961C115.38 229.708 115.38 231.611 116.438 232.997C117.938 234.924 120.766 235.014 123.209 234.924C124.783 234.858 126.537 234.719 127.619 233.562C128.701 232.406 128.718 230.815 128.726 229.315C128.824 213.619 128.201 197.944 126.857 182.292C126.496 178.151 127.529 168.089 127.48 163.931C127.439 159.552 128.906 152.786 129.669 148.473C131.587 137.533 133.497 135.458 135.137 124.478C136.637 125.567 138.331 126.361 140.129 126.815C141.949 127.151 144.047 126.651 145.097 125.125C145.733 123.991 146.042 122.702 145.99 121.402C146.139 118.054 146.095 114.7 145.859 111.357C145.862 110.569 145.674 109.792 145.31 109.093C144.763 108.361 144.026 107.793 143.178 107.453L132.144 101.959C130.987 101.253 129.67 100.85 128.316 100.786C126.817 100.954 125.425 101.648 124.39 102.746C118.364 108.38 118.332 117.687 117.512 125.896C116.823 132.801 115.208 139.788 111.405 145.578C107.601 151.367 101.313 155.861 94.3783 156.157C90.0821 156.394 85.7787 155.844 81.6803 154.533Z" fill="#2196F3"/>
<path d="M106.953 23.3062V64.3586C106.953 65.5831 106.467 66.7575 105.602 67.6233C104.736 68.4892 103.562 68.9756 102.338 68.9756H72.2122C70.9881 68.9756 69.8142 68.4892 68.9487 67.6233C68.0832 66.7575 67.597 65.5831 67.597 64.3586V23.3062C67.6056 22.0867 68.0954 20.9199 68.9598 20.0598C69.8241 19.1997 70.993 18.716 72.2122 18.7139H102.338C103.557 18.716 104.726 19.1997 105.591 20.0598C106.455 20.9199 106.945 22.0867 106.953 23.3062Z" fill="#2196F3"/>
<path d="M104.953 163.422C104.445 164.181 103.723 164.772 102.879 165.12C102.03 165.301 101.147 165.23 100.338 164.915C94.0751 163.029 88.42 159.524 83.9428 154.754C84.5197 153.473 85.276 152.28 86.189 151.212C89.0999 152.392 92.1912 153.066 95.3292 153.204C95.7565 153.26 96.1907 153.186 96.5753 152.991C96.836 152.791 97.0465 152.533 97.1901 152.237C98.6656 149.727 100.032 147.158 101.289 144.528C102.928 141.043 104.568 137.238 107.847 135.196C108.137 134.981 108.486 134.858 108.847 134.843C109.221 134.891 109.574 135.045 109.863 135.286C112.323 136.926 115.077 138.812 116.208 141.699C117.184 144.159 116.126 145.734 114.856 147.841C111.601 153.147 108.888 158.543 104.953 163.422Z" fill="#2196F3"/>
<path d="M117.135 187.885C114.872 187.245 113.306 185.072 112.7 182.792C112.093 180.513 111.159 173.772 111.306 171.434C112.012 160.223 111.721 148.972 110.437 137.812C110.364 137.189 124.217 133.547 125.521 134.376C128.628 136.344 126.078 145.906 125.586 148.989C123.693 160.815 120.963 176.56 117.135 187.885Z" fill="#2196F3"/>
<path d="M189.994 28.7433H121.037V33.3438H189.994V28.7433Z" fill="#2196F3"/>
<path d="M171.288 40.5276H121.037V45.1281H171.288V40.5276Z" fill="#2196F3"/>
<path d="M189.994 51.1638H121.037V55.7644H189.994V51.1638Z" fill="#2196F3"/>
<path d="M182.051 62.9481H121.037V67.5487H182.051V62.9481Z" fill="#2196F3"/>
<path d="M189.855 77.4633H68.0314V82.0638H189.855V77.4633Z" fill="#2196F3"/>
<path d="M163.59 89.2476H68.0314V93.8481H163.59V89.2476Z" fill="#2196F3"/>
<path d="M189.855 99.8756H68.0314V104.476H189.855V99.8756Z" fill="#2196F3"/>
<path d="M175.378 111.66H68.0314V116.26H175.378V111.66Z" fill="#2196F3"/>
<path d="M211.439 171.869L205.701 174.747L164.189 108.536C166.648 107.355 167.91 106.895 169.927 105.14L211.439 171.869Z" fill="#2196F3"/>
<path d="M211.472 172.222L205.734 175.1L164.254 108.921C166.713 107.748 167.976 107.281 169.992 105.526L211.472 172.222Z" fill="url(#paint0_linear)"/>
<path d="M151.892 52.4513C146.012 52.4513 140.264 54.1955 135.375 57.4635C130.485 60.7314 126.674 65.3762 124.424 70.8107C122.173 76.2452 121.584 82.2253 122.731 87.9947C123.877 93.7642 126.708 99.0641 130.865 103.224C135.023 107.384 140.32 110.218 146.087 111.366C151.854 112.515 157.832 111.927 163.265 109.677C168.698 107.427 173.342 103.616 176.61 98.7257C179.878 93.8355 181.623 88.0856 181.625 82.2032C181.625 74.314 178.493 66.7477 172.917 61.1683C167.341 55.589 159.779 52.4535 151.892 52.4513ZM151.294 106.51C146.491 106.512 141.796 105.088 137.802 102.42C133.808 99.7522 130.694 95.9592 128.855 91.5208C127.016 87.0825 126.534 82.1983 127.47 77.4859C128.406 72.7735 130.718 68.4446 134.113 65.0467C137.509 61.6488 141.835 59.3346 146.546 58.3967C151.256 57.4588 156.138 57.9393 160.576 59.7775C165.013 61.6158 168.806 64.7291 171.474 68.7238C174.143 72.7185 175.567 77.4151 175.567 82.2196C175.567 88.6547 173.014 94.8269 168.47 99.381C163.925 103.935 157.759 106.499 151.327 106.51H151.294Z" fill="#2196F3"/>
<path d="M151.892 52.4513C146.012 52.4513 140.264 54.1955 135.375 57.4635C130.485 60.7314 126.674 65.3762 124.424 70.8107C122.173 76.2452 121.584 82.2253 122.731 87.9947C123.877 93.7642 126.708 99.0641 130.865 103.224C135.023 107.384 140.32 110.218 146.087 111.366C151.854 112.515 157.832 111.927 163.265 109.677C168.698 107.427 173.342 103.616 176.61 98.7257C179.878 93.8355 181.623 88.0856 181.625 82.2032C181.625 74.314 178.493 66.7477 172.917 61.1683C167.341 55.589 159.779 52.4535 151.892 52.4513ZM151.294 106.51C146.491 106.512 141.796 105.088 137.802 102.42C133.808 99.7522 130.694 95.9592 128.855 91.5208C127.016 87.0825 126.534 82.1983 127.47 77.4859C128.406 72.7735 130.718 68.4446 134.113 65.0467C137.509 61.6488 141.835 59.3346 146.546 58.3967C151.256 57.4588 156.138 57.9393 160.576 59.7775C165.013 61.6158 168.806 64.7291 171.474 68.7238C174.143 72.7185 175.567 77.4151 175.567 82.2196C175.567 88.6547 173.014 94.8269 168.47 99.381C163.925 103.935 157.759 106.499 151.327 106.51H151.294Z" fill="url(#paint1_linear)"/>
<path opacity="0.53" d="M175.6 82.2196C175.601 87.0245 174.178 91.7219 171.511 95.7177C168.843 99.7135 165.051 102.828 160.614 104.668C156.177 106.507 151.294 106.989 146.583 106.052C141.873 105.115 137.545 102.801 134.149 99.4037C130.753 96.0061 128.44 91.6772 127.503 86.9646C126.567 82.252 127.048 77.3674 128.887 72.9285C130.726 68.4897 133.839 64.6962 137.834 62.0278C141.828 59.3593 146.524 57.9359 151.327 57.9375C157.764 57.9397 163.936 60.4987 168.488 65.052C173.039 69.6053 175.597 75.7803 175.6 82.2196Z" fill="white" stroke="#2196F3" stroke-width="0.62" stroke-miterlimit="10"/>
<path d="M221.424 125.716C221.063 125.806 220.604 125.863 220.448 126.183C220.348 126.404 220.317 126.65 220.358 126.889L220.752 131.44C220.763 132.17 220.94 132.887 221.268 133.539C221.981 134.72 223.522 135.04 224.891 135.179C226.26 135.319 227.793 135.548 228.662 136.623C229.13 137.197 229.367 137.992 230.007 138.361C230.604 138.606 231.268 138.635 231.884 138.443C232.311 138.405 232.716 138.239 233.048 137.968C233.249 137.696 233.364 137.371 233.38 137.034C233.397 136.697 233.312 136.362 233.138 136.073C232.788 135.522 232.484 134.944 232.228 134.343C231.892 133.08 232.638 131.825 233.048 130.595C233.51 129.347 233.614 127.995 233.349 126.691C233.084 125.387 232.46 124.183 231.548 123.215C230.758 122.476 229.776 121.976 228.714 121.771C227.653 121.566 226.555 121.666 225.547 122.058C223.678 122.772 223.555 125.207 221.424 125.716Z" fill="url(#paint2_linear)"/>
<path d="M224.711 118.007C224.65 117.938 224.573 117.883 224.487 117.848C224.401 117.813 224.308 117.798 224.215 117.804C224.123 117.81 224.033 117.838 223.952 117.884C223.872 117.931 223.803 117.996 223.752 118.073C223.673 118.239 223.641 118.423 223.662 118.606C223.766 119.821 224.34 120.947 225.26 121.747C226.176 122.534 227.174 123.221 228.236 123.797C228.914 124.139 229.497 124.643 229.933 125.265C230.393 126.285 230.452 127.442 230.097 128.504C230.039 128.758 230.007 129.095 230.244 129.218C230.482 129.341 230.826 129.021 231.154 128.955C231.34 128.946 231.521 129.009 231.66 129.132C231.799 129.254 231.886 129.426 231.9 129.611C231.912 129.988 231.796 130.358 231.572 130.661C231.402 130.999 231.14 131.282 230.818 131.481C230.703 131.53 230.572 131.588 230.548 131.711C230.523 131.834 230.621 131.916 230.703 131.989C231.089 132.342 231.482 132.686 231.884 133.014C232.109 133.235 232.394 133.383 232.704 133.441C232.933 133.418 233.156 133.348 233.357 133.233C233.557 133.119 233.731 132.963 233.868 132.777L236.434 130.087C236.688 129.864 236.885 129.582 237.007 129.267C237.073 128.983 237.073 128.689 237.007 128.406C236.969 127.969 236.825 127.549 236.588 127.18C236.351 126.811 236.028 126.506 235.647 126.29C235.94 125.955 236.164 125.565 236.305 125.143C236.446 124.72 236.501 124.274 236.466 123.83C236.445 123.094 236.268 122.37 235.948 121.707C235.627 121.044 235.17 120.457 234.605 119.984C233.488 119.216 232.286 118.58 231.023 118.089C229.576 117.365 228.286 116.361 227.228 115.137C227.052 114.879 226.808 114.674 226.523 114.547C225.908 114.342 225.236 114.973 224.957 115.481C224.632 116.282 224.547 117.159 224.711 118.007Z" fill="#3E3E54"/>
<path d="M217.473 147.464C216.916 147.889 216.285 148.206 215.612 148.399C214.879 148.511 214.132 148.491 213.407 148.341C208.021 147.521 202.668 146.439 197.38 145.11C197.179 145.027 196.961 144.991 196.744 145.005C196.526 145.019 196.315 145.083 196.126 145.192C195.939 145.397 195.814 145.65 195.766 145.922L194.675 150.023C194.59 150.184 194.543 150.363 194.54 150.545C194.537 150.727 194.577 150.908 194.657 151.072C194.737 151.236 194.855 151.379 195 151.488C195.146 151.598 195.315 151.672 195.495 151.704C200.146 153.809 204.818 155.856 209.513 157.846C211.016 158.601 212.655 159.05 214.333 159.166C215.633 159.114 216.915 158.836 218.12 158.346C222.272 156.859 226.193 154.794 229.769 152.212L240.254 162.676C242.041 164.464 244.074 166.358 246.598 166.498C248.079 166.477 249.536 166.132 250.869 165.489C253.875 164.303 256.865 163.075 259.838 161.807C260.356 161.66 260.801 161.324 261.084 160.864C261.207 160.497 261.207 160.099 261.084 159.732C260.647 158.339 259.879 157.073 258.846 156.042C253.116 149.429 246.659 143.485 239.598 138.32C238.196 137.295 236.483 136.024 234.737 135.671C233.253 135.368 231.507 136.442 230.236 137.164C227.211 138.894 224.67 141.338 222.08 143.634C220.622 145.002 219.084 146.281 217.473 147.464Z" fill="#2196F3"/>
<path d="M218.866 218.99C218.68 219.293 218.573 219.637 218.553 219.992C218.533 220.347 218.601 220.702 218.751 221.024C219.105 221.407 219.592 221.639 220.112 221.672C221.956 221.992 223.837 222.039 225.695 221.811C227.392 216.489 230.482 211.732 233.532 207.05C238.122 199.986 242.716 192.931 247.312 185.884C252.616 177.733 257.969 169.483 261.157 160.29C260.969 160.839 253.255 162.389 252.222 162.75C249.935 163.57 246.779 164.497 244.779 165.932C240.483 169.032 237.835 176.806 235.491 181.447C229.326 193.691 224.096 206.345 218.866 218.99Z" fill="#3E3E54"/>
<path d="M218.866 218.99C218.68 219.293 218.573 219.637 218.553 219.992C218.533 220.347 218.601 220.702 218.751 221.024C219.105 221.407 219.592 221.639 220.112 221.672C221.956 221.992 223.837 222.039 225.695 221.811C227.392 216.489 230.482 211.732 233.532 207.05C238.122 199.986 242.716 192.931 247.312 185.884C252.616 177.733 257.969 169.483 261.157 160.29C260.969 160.839 253.255 162.389 252.222 162.75C249.935 163.57 246.779 164.497 244.779 165.932C240.483 169.032 237.835 176.806 235.491 181.447C229.326 193.691 224.096 206.345 218.866 218.99Z" fill="url(#paint3_linear)"/>
<path d="M247.443 190.493C247.434 191.621 247.71 192.732 248.246 193.725C248.782 194.717 249.561 195.557 250.509 196.168C258.108 202.548 266.166 208.362 274.216 214.209C276.418 213.383 278.301 211.878 279.594 209.912C273.353 205.502 267.478 200.596 262.026 195.241C260.723 194.003 259.354 192.625 259.083 190.854C258.862 189.41 259.419 187.975 259.903 186.589C261.633 181.431 262.264 175.986 262.887 170.582C263.231 167.588 263.543 164.406 262.207 161.708C261.977 161.171 261.606 160.706 261.133 160.364C260.231 159.79 259.059 159.995 258.026 160.257C254.81 161.005 251.681 162.085 248.689 163.48C246.23 164.702 246.172 165.76 246.23 168.4C246.336 175.748 246.639 183.12 247.443 190.493Z" fill="#3E3E54"/>
<path d="M219.776 220.901C217.719 221.508 216.079 223.016 214.513 224.476C214.021 224.935 213.489 225.649 213.866 226.207C213.991 226.347 214.143 226.462 214.314 226.542C214.484 226.622 214.669 226.667 214.858 226.674C216.61 226.959 218.391 227.036 220.161 226.904C221.227 226.868 222.271 226.587 223.211 226.084C223.678 225.829 224.067 225.453 224.338 224.995C224.609 224.538 224.752 224.016 224.752 223.484C224.675 222.918 224.427 222.389 224.042 221.967C223.657 221.545 223.153 221.25 222.596 221.122C221.471 220.89 220.301 221.046 219.276 221.565" fill="#3E3E54"/>
<path d="M272.437 215.127C271.617 215.898 270.724 217.038 271.216 218.071C271.414 218.393 271.697 218.655 272.034 218.827C272.371 218.999 272.749 219.075 273.126 219.047C274.333 218.929 275.492 218.509 276.495 217.825C278.954 216.44 281.561 215.16 283.873 213.553C281.11 207.025 275.913 211.921 272.437 215.127Z" fill="#3E3E54"/>
<path d="M189.396 141.149C189.166 140.954 188.905 140.796 188.625 140.682C188.428 140.615 188.218 140.592 188.011 140.617C187.804 140.641 187.605 140.711 187.429 140.821C187.111 141.068 186.871 141.401 186.738 141.781C186.604 142.16 186.582 142.57 186.674 142.962C186.789 143.782 187.15 144.504 187.306 145.291C187.337 146.084 187.559 146.857 187.953 147.546C188.593 148.112 189.428 148.406 190.281 148.366C192.126 148.53 195.807 149.112 194.897 145.906C194.356 144.003 190.888 142.298 189.396 141.149Z" fill="url(#paint4_linear)"/>
<path d="M100.313 68.9756H73.6221C72.0318 66.909 74.5157 59.0692 75.3764 57.0191C75.7453 56.1416 81.3852 47.9984 81.6885 48.556C79.9506 45.5628 78.1472 42.3645 78.2538 38.8957C78.3767 34.5575 81.7131 30.695 85.8283 29.3091C90.3451 27.8166 96.19 29.7355 97.6409 34.2295C98.0777 35.8061 98.1395 37.4631 97.8213 39.0679C97.161 43.0067 95.3033 46.6462 92.5011 49.4909C96.7638 50.8276 98.7066 55.6742 99.7969 60.0041C100.395 62.4725 100.92 66.499 100.313 68.9756Z" fill="url(#paint5_linear)"/>
<path d="M130.415 93.5037C130.415 94.4386 130.341 95.4883 129.595 96.0951C129.274 96.3304 128.894 96.4718 128.497 96.5037C128.101 96.5355 127.703 96.4566 127.349 96.2756C126.644 95.905 126.046 95.3601 125.611 94.6928C125.071 93.9674 124.625 93.1766 124.283 92.3392C123.829 91.2246 123.631 90.0226 123.701 88.8212C123.726 88.2067 123.877 87.604 124.144 87.0498C124.462 86.4905 124.927 86.0294 125.49 85.717C126.052 85.4046 126.69 85.2529 127.332 85.2785C128.636 85.3277 130.472 86.1805 130.447 87.6321C130.447 89.5838 130.439 91.5438 130.415 93.5037Z" fill="url(#paint6_linear)"/>
<path d="M128.029 99.1786C127.857 99.7444 127.767 100.499 128.283 100.778C128.508 100.875 128.754 100.912 128.997 100.884C129.674 100.842 130.354 100.943 130.989 101.182C131.625 101.421 132.203 101.792 132.685 102.27C133.382 103.138 133.792 104.201 133.858 105.313C133.964 106.403 133.923 107.51 134.079 108.593C134.325 110.233 138.178 112.947 138.457 112.201C139.096 110.396 139.292 108.464 139.03 106.567C138.94 105.911 138.875 105.099 139.424 104.755C139.748 104.599 140.117 104.564 140.465 104.657C141.538 104.823 142.576 105.164 143.539 105.665C143.145 106.633 144.965 115.244 144.818 117.359C144.244 125.691 133.972 119 132.226 118.04C131.743 117.786 131.21 117.277 131.407 116.777C130.989 119.902 130.415 123.231 129.997 126.355C129.636 129.029 129.226 131.834 127.636 134.015C126.329 135.655 124.604 136.913 122.643 137.656C118.282 139.501 112.954 139.657 109.077 136.951C108.277 136.454 107.634 135.74 107.224 134.892C106.941 134.06 106.84 133.176 106.929 132.301C107.112 126.717 107.837 121.163 109.093 115.719C110.068 111.471 111.552 107.051 114.872 104.238C118.036 101.598 123.914 99.646 128.029 99.1786Z" fill="white"/>
<path d="M123.767 75.1097C122.428 75.1009 121.102 75.3705 119.873 75.9013C118.644 76.4321 117.538 77.2125 116.626 78.1931C114.814 80.1713 113.435 82.5064 112.577 85.0489C111.757 87.263 111.085 89.6002 109.675 91.5028C107.773 94.0778 104.756 95.5211 102.051 97.2432C99.346 98.9653 96.69 101.344 96.3129 104.558C96.108 106.33 96.6654 108.125 96.4523 109.889C96.19 112.037 94.8128 114.219 95.6817 116.211C96.0184 116.93 96.5422 117.545 97.1983 117.991C98.5316 118.937 100.126 119.445 101.76 119.445C103.395 119.445 104.989 118.937 106.322 117.991C109.142 115.891 110.224 112.111 112.831 109.749C115.692 107.158 119.881 106.674 123.111 104.575C124.829 103.437 126.23 101.88 127.179 100.051C128.129 98.2211 128.596 96.1794 128.537 94.1188C128.48 92.6016 128.128 91.0517 128.537 89.592C128.947 88.1323 129.988 87.0662 130.341 85.6639C130.784 83.9418 130.046 80.7435 129.456 79.0542C128.685 76.7088 126.144 75.2327 123.767 75.1097Z" fill="#3E3E54"/>
<path d="M138.957 102.738C138.693 102.401 138.499 102.017 138.383 101.606C138.327 101.399 138.354 101.179 138.458 100.992C138.562 100.805 138.735 100.667 138.94 100.605C139.136 100.611 139.331 100.592 139.522 100.548C139.626 100.497 139.719 100.424 139.793 100.335C139.959 100.19 140.157 100.086 140.37 100.029C140.583 99.9719 140.806 99.9644 141.022 100.007C141.24 100.057 141.443 100.157 141.615 100.299C141.788 100.442 141.924 100.622 142.014 100.827C142.14 100.81 142.267 100.827 142.384 100.876C142.501 100.925 142.602 101.004 142.678 101.106C142.826 101.309 142.921 101.546 142.957 101.795C142.971 101.947 143.022 102.093 143.105 102.221C143.178 102.319 143.293 102.369 143.375 102.459C143.453 102.579 143.505 102.714 143.527 102.855C143.55 102.996 143.543 103.141 143.506 103.279L143.285 104.976C143.281 105.042 143.264 105.106 143.236 105.165C143.121 105.362 142.826 105.321 142.604 105.255C142.019 105.091 141.417 104.992 140.809 104.96C139.375 104.894 139.596 103.796 138.957 102.738Z" fill="url(#paint7_linear)"/>
<path d="M112.413 190.107C112.387 190.456 112.437 190.805 112.56 191.132C112.962 192.034 114.2 192.256 115.298 192.313C117.433 192.421 119.572 192.378 121.701 192.182C122.192 192.186 122.67 192.028 123.062 191.731C123.257 191.495 123.355 191.193 123.333 190.888C123.312 190.582 123.173 190.297 122.947 190.091C122.467 189.655 121.891 189.338 121.266 189.164C120.64 188.992 120.059 188.687 119.561 188.27C119.06 187.712 118.801 186.978 118.84 186.228C118.84 185.49 118.938 184.76 118.84 184.031C118.84 183.967 118.826 183.903 118.8 183.845C118.773 183.787 118.733 183.735 118.684 183.694C118.592 183.643 118.486 183.62 118.381 183.629C117.012 183.588 113.634 183.022 112.642 184.162C111.651 185.302 112.429 188.713 112.413 190.107Z" fill="#3E3E54"/>
<path d="M81.9836 147.743C81.6616 147.529 81.2937 147.394 80.9098 147.349C80.3792 147.393 79.8793 147.616 79.4916 147.981C77.723 149.358 76.1964 151.021 74.9747 152.901C74.3025 153.918 73.6877 155.255 74.155 156.419C75.9339 156.821 77.8275 157.239 79.508 156.419C80.0646 156.084 80.6424 155.785 81.2377 155.525C81.5911 155.413 81.9641 155.376 82.3327 155.417C82.7013 155.458 83.0571 155.576 83.3772 155.763C83.992 156.116 84.5741 156.739 85.2545 156.649C85.6908 156.538 86.0741 156.277 86.3365 155.911C87.3038 154.746 88.4679 152.311 87.5334 150.859C86.5989 149.408 83.3198 148.489 81.9836 147.743Z" fill="#3E3E54"/>
<path d="M100.781 192.641L123.053 192.28V239.992H55.8171V221.885H71.0481V210.1H92.0174V192.567L100.781 192.641Z" fill="#2196F3"/>
<defs>
<linearGradient id="paint0_linear" x1="164.254" y1="140.297" x2="211.472" y2="140.297" gradientUnits="userSpaceOnUse">
<stop stop-opacity="0"/>
<stop offset="0.99"/>
</linearGradient>
<linearGradient id="paint1_linear" x1="12600.3" y1="6466.99" x2="8098.63" y2="10133.9" gradientUnits="userSpaceOnUse">
<stop stop-opacity="0"/>
<stop offset="0.99"/>
</linearGradient>
<linearGradient id="paint2_linear" x1="220.342" y1="130.095" x2="233.507" y2="130.095" gradientUnits="userSpaceOnUse">
<stop stop-color="#E5C5D5"/>
<stop offset="0.42" stop-color="#EAD4D1"/>
<stop offset="1" stop-color="#F0E9CB"/>
</linearGradient>
<linearGradient id="paint3_linear" x1="12034.2" y1="16874.8" x2="13380.3" y2="16182.7" gradientUnits="userSpaceOnUse">
<stop stop-opacity="0"/>
<stop offset="0.99"/>
</linearGradient>
<linearGradient id="paint4_linear" x1="2118.25" y1="1741.62" x2="2204.56" y2="1741.62" gradientUnits="userSpaceOnUse">
<stop stop-color="#E5C5D5"/>
<stop offset="0.42" stop-color="#EAD4D1"/>
<stop offset="1" stop-color="#F0E9CB"/>
</linearGradient>
<linearGradient id="paint5_linear" x1="3147.12" y1="217.989" x2="2594.59" y2="9404.64" gradientUnits="userSpaceOnUse">
<stop stop-opacity="0"/>
<stop offset="0.99"/>
</linearGradient>
<linearGradient id="paint6_linear" x1="1155.56" y1="1624.68" x2="1211.34" y2="1624.68" gradientUnits="userSpaceOnUse">
<stop stop-color="#E5C5D5"/>
<stop offset="0.42" stop-color="#EAD4D1"/>
<stop offset="1" stop-color="#F0E9CB"/>
</linearGradient>
<linearGradient id="paint7_linear" x1="1022.57" y1="906.622" x2="1055.29" y2="906.622" gradientUnits="userSpaceOnUse">
<stop stop-color="#E5C5D5"/>
<stop offset="0.42" stop-color="#EAD4D1"/>
<stop offset="1" stop-color="#F0E9CB"/>
</linearGradient>
</defs>
</svg>
