<svg width="389" height="282" viewBox="0 0 389 282" fill="none" xmlns="http://www.w3.org/2000/svg">
<path opacity="0.18" d="M12.5623 220.353C12.9335 223.411 13.5878 226.427 14.5169 229.364C19.5402 245.315 32.1569 259.167 46.9139 267.767C64.036 277.754 78.451 282 93.2275 282C100.756 281.927 108.249 280.96 115.549 279.12C116.526 278.896 117.503 278.642 118.481 278.388C120.943 277.737 123.458 277.015 126.025 276.221L129.143 275.245L130.726 274.718C132.847 274.005 134.997 273.253 137.205 272.453L140.548 271.223C151.356 267.191 161.765 261.568 172.388 256.97C182.161 252.734 192.178 249.366 202.811 248.936C229.598 247.853 253.473 265.629 279.899 270.188C311.631 275.655 345.377 260.182 363.877 233.835C364.796 232.533 365.672 231.205 366.506 229.852C366.76 229.451 367.004 229.041 367.249 228.641C367.904 227.558 368.529 226.474 369.125 225.371C369.399 224.873 369.663 224.395 369.927 223.858C370.19 223.321 370.493 222.755 370.767 222.198L370.835 222.062C371.119 221.505 371.383 220.949 371.647 220.383C374.091 215.123 376.054 209.654 377.51 204.041C382.855 183.419 381.798 161.661 374.481 141.652C373.829 139.863 373.116 138.096 372.34 136.352C368.568 127.703 363.418 119.61 356.313 113.45C341.966 100.994 321.922 98.0068 304.683 90.0215C296.373 86.0732 288.559 81.1581 281.404 75.3786C256.288 55.4935 236.449 27.5451 208.156 11.9943C196.038 5.42419 182.674 1.46672 168.928 0.377561C145.857 -1.52535 122.766 3.79741 102.864 15.6062C89.9732 23.2498 77.8939 32.182 67.4467 56.0597C61.671 69.2579 56.4034 87.0149 51.7515 111.703C51.2055 114.562 50.5107 117.39 49.6699 120.176C43.4837 140.774 29.8603 160.347 20.8399 180.544C16.2565 190.814 12.8751 201.249 12.2691 212.056C12.1146 214.825 12.2128 217.602 12.5623 220.353Z" fill="#2196F3"/>
<g clip-path="url(#clip0)">
<path d="M220.767 171.411C216.635 171.314 212.564 172.432 209.061 174.626C208.396 174.993 207.741 175.355 207.052 175.686L221.559 158.24C222.327 157.341 222.502 156.077 222.007 155.003C221.511 153.93 220.436 153.243 219.254 153.244H206.124L190.174 141.641L189.402 140.098C187.873 137.014 184.723 135.067 181.281 135.078H165.705L164.191 132.05H172.337C173.173 132.05 173.85 131.372 173.85 130.537C173.85 129.701 173.173 129.023 172.337 129.023H155.689C154.853 129.023 154.175 129.7 154.175 130.537C154.175 131.373 154.853 132.05 155.689 132.05H160.807L162.321 135.078H155.689C153.181 135.078 151.148 137.111 151.148 139.62C151.148 142.128 153.181 144.161 155.689 144.161H157.78L153.24 153.244H151.905C150.953 153.246 150.057 153.695 149.484 154.456L145.851 159.3H143.248C142.733 159.3 142.252 159.562 141.974 159.996L134.613 171.468C134.09 171.438 133.564 171.411 132.987 171.411C132.151 171.411 131.474 172.089 131.474 172.925C131.474 173.761 132.151 174.439 132.987 174.439C136.606 174.351 140.17 175.34 143.227 177.279C146.73 179.474 150.8 180.592 154.932 180.494C158.171 180.588 161.385 179.904 164.305 178.5L164.326 178.49C165.133 178.101 165.887 177.687 166.631 177.279C169.687 175.341 173.248 174.352 176.865 174.439C180.486 174.351 184.051 175.339 187.11 177.279C190.615 179.474 194.688 180.592 198.822 180.494C202.955 180.591 207.025 179.473 210.529 177.279C213.586 175.341 217.149 174.353 220.767 174.439C221.603 174.439 222.281 173.761 222.281 172.925C222.281 172.089 221.603 171.411 220.767 171.411ZM188.493 144.161L192.655 147.189H175.364C174.528 147.189 173.85 146.511 173.85 145.675V144.161H188.493V144.161ZM155.689 141.134C154.853 141.134 154.175 140.456 154.175 139.62C154.175 138.784 154.853 138.106 155.689 138.106H181.281C183.441 138.102 185.436 139.258 186.507 141.134H155.689V141.134ZM161.165 144.161H170.823V145.675C170.823 148.183 172.856 150.217 175.364 150.217H196.817L200.979 153.244H156.624L161.165 144.161ZM151.905 156.272H182.931V157.786C182.931 158.622 182.253 159.3 181.418 159.3H149.635L151.905 156.272ZM198.822 177.466C195.2 177.555 191.632 176.567 188.572 174.626C185.068 172.432 180.998 171.314 176.865 171.411C172.735 171.314 168.667 172.432 165.166 174.626C162.111 176.565 158.549 177.553 154.932 177.466C151.313 177.554 147.748 176.565 144.691 174.626C142.599 173.363 140.319 172.443 137.936 171.901L144.075 162.328H181.418C183.925 162.328 185.958 160.294 185.958 157.786V156.272H190.498V160.814C190.498 161.65 191.176 162.328 192.012 162.328C192.847 162.328 193.525 161.65 193.525 160.814V156.272H196.552V160.814C196.552 161.65 197.229 162.328 198.065 162.328C198.901 162.328 199.579 161.65 199.579 160.814V156.272H202.606V160.814C202.606 161.65 203.283 162.328 204.119 162.328C204.955 162.328 205.632 161.65 205.632 160.814V156.281H219.24L201.8 177.272C200.813 177.403 199.818 177.468 198.822 177.466Z" fill="#0275D8"/>
<path d="M220.767 180.494C216.634 180.397 212.564 181.515 209.06 183.709C206.003 185.647 202.44 186.636 198.822 186.55C195.202 186.637 191.636 185.649 188.577 183.709C185.072 181.514 180.999 180.396 176.865 180.494C172.735 180.397 168.667 181.515 165.166 183.709C162.111 185.648 158.549 186.636 154.932 186.55C151.312 186.637 147.748 185.649 144.69 183.709C141.188 181.515 137.119 180.397 132.987 180.494C132.151 180.494 131.474 181.172 131.474 182.008C131.474 182.844 132.151 183.522 132.987 183.522C136.606 183.434 140.17 184.423 143.227 186.362C146.73 188.557 150.8 189.675 154.932 189.577C159.063 189.674 163.131 188.556 166.631 186.36C169.687 184.423 173.248 183.435 176.865 183.522C180.486 183.434 184.051 184.423 187.11 186.362C190.615 188.557 194.688 189.675 198.822 189.577C202.955 189.674 207.025 188.556 210.529 186.362C213.586 184.424 217.149 183.436 220.767 183.522C221.603 183.522 222.281 182.844 222.281 182.008C222.281 181.172 221.603 180.494 220.767 180.494Z" fill="#0275D8"/>
</g>
<path d="M22.8963 253.96C26.3288 253.96 29.1168 251.166 29.1168 247.726C29.1168 244.294 26.3288 241.493 22.8963 241.493C19.4638 241.493 16.6758 244.287 16.6758 247.726C16.6758 251.166 19.4638 253.96 22.8963 253.96ZM22.8963 245.338C24.2154 245.338 25.2871 246.412 25.2871 247.734C25.2871 249.056 24.2154 250.13 22.8963 250.13C21.5773 250.13 20.5055 249.056 20.5055 247.734C20.5055 246.412 21.5773 245.338 22.8963 245.338Z" fill="#0275D8"/>
<path d="M76.4519 241.5C73.0269 241.5 70.2314 244.294 70.2314 247.734C70.2314 251.174 73.0194 253.967 76.4519 253.967C79.8845 253.967 82.6724 251.174 82.6724 247.734C82.6724 244.294 79.8845 241.5 76.4519 241.5ZM76.4519 250.13C75.1329 250.13 74.0612 249.056 74.0612 247.734C74.0612 246.412 75.1329 245.338 76.4519 245.338C77.771 245.338 78.8427 246.412 78.8427 247.734C78.8427 249.056 77.771 250.13 76.4519 250.13Z" fill="#0275D8"/>
<path d="M99.3334 222.019C97.0325 218.106 93.1503 216.123 87.7842 216.123H73.6419C71.1387 210.866 60.2191 189.808 46.1592 189.808H1.91112C0.854384 189.808 0 190.664 0 191.723V218.039V233.742C0 244.414 0.00749405 248.522 6.85755 249.416C7.70444 257.535 14.5695 263.888 22.896 263.888C31.14 263.888 37.9526 257.655 38.9044 249.649H46.3016C47.3583 249.649 48.2127 248.793 48.2127 247.734C48.2127 246.675 47.3583 245.819 46.3016 245.819H38.9044C37.9526 237.813 31.14 231.579 22.896 231.579C14.7269 231.579 7.95926 237.7 6.91751 245.609C3.89719 245.225 3.82974 243.738 3.82974 233.742V227.682H29.851C30.9077 227.682 31.7621 226.825 31.7621 225.767C31.7621 224.708 30.9077 223.851 29.851 223.851H3.82974V219.961H87.7842C91.6664 219.961 94.3345 221.185 95.9608 223.851H45.5372C44.4804 223.851 43.626 224.708 43.626 225.767C43.626 226.825 44.4804 227.682 45.5372 227.682H97.4073C97.782 229.394 97.9544 231.399 97.9544 233.742C97.9544 241.102 97.707 244.73 92.3934 245.331C91.2317 237.558 84.524 231.579 76.4524 231.579C68.2083 231.579 61.3957 237.813 60.4439 245.819H52.6121C51.5553 245.819 50.7009 246.675 50.7009 247.734C50.7009 248.793 51.5553 249.649 52.6121 249.649H60.4439C61.3957 257.655 68.2083 263.888 76.4524 263.888C84.8613 263.888 91.7863 257.407 92.5133 249.168C101.784 248.282 101.792 240.584 101.792 233.742C101.784 228.59 101.005 224.865 99.3334 222.019ZM22.896 235.41C29.6786 235.41 35.1946 240.937 35.1946 247.734C35.1946 254.531 29.6786 260.058 22.896 260.058C16.1134 260.058 10.5974 254.531 10.5974 247.734C10.5974 240.937 16.1134 235.41 22.896 235.41ZM31.8895 216.116H3.82974V193.638H31.8895V216.116ZM35.7118 216.116V193.638H46.1592C56.7641 193.638 66.0349 209.627 69.3625 216.116H35.7118ZM76.4524 260.058C69.6698 260.058 64.1537 254.531 64.1537 247.734C64.1537 240.937 69.6698 235.41 76.4524 235.41C83.235 235.41 88.751 240.937 88.751 247.734C88.751 254.523 83.235 260.058 76.4524 260.058Z" fill="#0275D8"/>
<path d="M35.9668 223.844C34.9101 223.844 34.0557 224.7 34.0557 225.759C34.0557 226.818 34.9101 227.674 35.9668 227.674H39.6017C40.6584 227.674 41.5128 226.818 41.5128 225.759C41.5128 224.7 40.6584 223.844 39.6017 223.844H35.9668Z" fill="#0275D8"/>
<path d="M272.436 177.43C273.324 175.516 274.825 174.892 276.914 174.894C312.821 174.936 348.729 174.933 384.636 174.899C386.686 174.897 388.174 175.502 389 177.43C389 191.172 389 204.916 389 218.658C387.941 221.478 385.547 221.305 382.956 221.155C383.271 221.738 383.485 222.156 383.718 222.561C384.711 224.308 385.726 226.042 386.705 227.796C387.786 229.732 387.322 231.753 385.6 232.744C383.869 233.74 381.892 233.14 380.777 231.221C379.024 228.207 377.278 225.185 375.595 222.131C375.184 221.388 374.723 221.172 373.907 221.174C358.889 221.199 343.869 221.199 328.851 221.174C327.96 221.172 327.431 221.403 326.979 222.226C325.284 225.316 323.511 228.367 321.738 231.415C320.932 232.8 319.492 233.451 318.088 233.152C316.605 232.837 315.441 231.702 315.366 230.191C315.327 229.409 315.568 228.527 315.937 227.825C317.078 225.651 318.341 223.543 319.631 221.279C308.409 221.279 297.337 221.279 286.127 221.279C286.127 223.586 286.156 225.853 286.118 228.117C286.086 229.953 284.782 231.323 283.041 231.454C280.928 231.615 279.345 230.155 279.286 227.961C279.257 226.861 279.277 225.76 279.277 224.66C279.277 223.562 279.277 222.464 279.277 221.245C276.727 221.031 273.727 221.981 272.436 218.658C272.436 204.916 272.436 191.172 272.436 177.43ZM382.081 214.28C382.081 203.405 382.081 192.615 382.081 181.849C347.781 181.849 313.579 181.849 279.337 181.849C279.337 192.69 279.337 203.451 279.337 214.28C313.601 214.28 347.803 214.28 382.081 214.28Z" fill="#0275D8"/>
<path d="M337.614 248.614C330.945 248.616 325.571 243.258 325.588 236.626C325.605 230.051 330.979 224.643 337.524 224.619C344.192 224.595 349.593 229.997 349.603 236.704C349.61 243.253 344.217 248.612 337.614 248.614ZM332.48 236.636C332.47 239.488 334.746 241.776 337.594 241.778C340.402 241.781 342.762 239.425 342.745 236.641C342.728 233.804 340.421 231.498 337.599 231.496C334.758 231.496 332.49 233.772 332.48 236.636Z" fill="#0275D8"/>
<path d="M377.018 236.662C376.957 243.418 371.597 248.692 364.861 248.619C358.224 248.548 352.981 243.151 353.032 236.439C353.08 229.922 358.588 224.546 365.14 224.624C371.738 224.704 377.076 230.111 377.018 236.662ZM370.148 236.76C370.216 233.913 368.013 231.588 365.152 231.491C362.374 231.396 359.953 233.704 359.882 236.517C359.812 239.33 362.097 241.722 364.907 241.776C367.772 241.829 370.08 239.621 370.148 236.76Z" fill="#0275D8"/>
<path d="M188.499 33.7515C188.005 33.003 187.163 32.5603 186.269 32.5603H156.299V17.6017C156.299 16.1153 155.099 14.9136 153.616 14.9136H66.3866C64.9033 14.9136 63.7041 16.1153 63.7041 17.6017V83.4869C63.7041 84.9733 64.9033 86.175 66.3866 86.175H74.4237C75.6755 92.3735 81.1458 97.0434 87.689 97.0434C94.2323 97.0434 99.7026 92.363 100.954 86.175H110.001C111.485 86.175 112.684 84.9733 112.684 83.4869C112.684 82.0005 111.485 80.7988 110.001 80.7988H100.954C99.7026 74.6003 94.2323 69.9304 87.689 69.9304C81.1458 69.9304 75.6755 74.6108 74.4237 80.7988H69.0692V20.2898H150.923V35.2589V80.7988H119.553C118.07 80.7988 116.871 82.0005 116.871 83.4869C116.871 84.9733 118.07 86.175 119.553 86.175H153.605H159.192C160.443 92.3735 165.914 97.0434 172.457 97.0434C179 97.0434 184.47 92.363 185.722 86.175H203.879C205.362 86.175 206.562 84.9733 206.562 83.4869V61.5287C206.562 60.991 206.404 60.4745 206.099 60.0318L188.499 33.7515ZM87.689 75.296C92.1915 75.296 95.8523 78.9645 95.8523 83.4763C95.8523 87.9882 92.1915 91.6567 87.689 91.6567C83.1866 91.6567 79.5258 87.9882 79.5258 83.4763C79.5258 78.9751 83.1866 75.296 87.689 75.296ZM172.467 91.6672C167.965 91.6672 164.304 87.9987 164.304 83.4869C164.304 78.9751 167.965 75.3066 172.467 75.3066C176.97 75.3066 180.631 78.9751 180.631 83.4869C180.631 87.9882 176.97 91.6672 172.467 91.6672ZM201.207 80.7882H185.733C184.481 74.5898 179.011 69.9198 172.467 69.9198C165.924 69.9198 160.454 74.6003 159.202 80.7882H156.299V37.947H184.839L201.197 62.3404V80.7882H201.207Z" fill="#0275D8"/>
<path d="M78.4218 45.5896H86.2169C87.7002 45.5896 88.8994 44.3879 88.8994 42.9015C88.8994 41.4151 87.7002 40.2134 86.2169 40.2134H78.4218C76.9385 40.2134 75.7393 41.4151 75.7393 42.9015C75.7393 44.3879 76.9385 45.5896 78.4218 45.5896Z" fill="#0275D8"/>
<path d="M141.592 40.2134H95.4003C93.917 40.2134 92.7178 41.4151 92.7178 42.9015C92.7178 44.3879 93.917 45.5896 95.4003 45.5896H141.592C143.076 45.5896 144.275 44.3879 144.275 42.9015C144.275 41.4151 143.065 40.2134 141.592 40.2134Z" fill="#0275D8"/>
<path d="M141.592 55.4883H133.808C132.324 55.4883 131.125 56.69 131.125 58.1764C131.125 59.6628 132.324 60.8645 133.808 60.8645H141.592C143.075 60.8645 144.275 59.6628 144.275 58.1764C144.275 56.7006 143.065 55.4883 141.592 55.4883Z" fill="#0275D8"/>
<path d="M78.4218 60.875H124.614C126.097 60.875 127.296 59.6733 127.296 58.1869C127.296 56.7005 126.097 55.4988 124.614 55.4988H78.4218C76.9385 55.4988 75.7393 56.7005 75.7393 58.1869C75.7393 59.6733 76.9385 60.875 78.4218 60.875Z" fill="#0275D8"/>
<path d="M181.135 42.5642H163.872C162.389 42.5642 161.189 43.766 161.189 45.2523V59.7998C161.189 61.2862 162.389 62.4879 163.872 62.4879H190.897C191.896 62.4879 192.801 61.9397 193.275 61.0648C193.737 60.1898 193.685 59.1251 193.127 58.3029L183.365 43.7554C182.871 43.0175 182.029 42.5642 181.135 42.5642ZM166.565 57.1117V47.951H179.715L185.858 57.1117H166.565Z" fill="#0275D8"/>
<defs>
<clipPath id="clip0">
<rect width="90.8118" height="90.8365" fill="white" transform="translate(131.474 113.885)"/>
</clipPath>
</defs>
</svg>
