<svg width="14" height="12" viewBox="0 0 14 12" fill="none" xmlns="http://www.w3.org/2000/svg">
<path d="M12.4203 4.69251C12.0371 4.69251 11.7264 5.00319 11.7264 5.3864V6.87376H10.3158V0.693885C10.3158 0.310675 10.0051 0 9.62187 0H0.693885C0.310675 0 0 0.310675 0 0.693885V9.11811C0 9.50132 0.310675 9.812 0.693885 9.812H1.48575C1.50323 11.0213 2.49193 12 3.70535 12C4.91881 12 5.90746 11.0214 5.92494 9.812H9.62187C10.0051 9.812 10.3158 9.50132 10.3158 9.11811V8.26149H12.4203C12.8035 8.26149 13.1141 7.95081 13.1141 7.5676V5.38635C13.1141 5.00319 12.8035 4.69251 12.4203 4.69251ZM3.70535 10.6123C3.24622 10.6123 2.87268 10.2387 2.87268 9.77961C2.87268 9.32049 3.24622 8.94695 3.70535 8.94695C4.16447 8.94695 4.53801 9.32049 4.53801 9.77961C4.53801 10.2387 4.16447 10.6123 3.70535 10.6123Z" fill="#D8DBDF"/>
</svg>
