<svg width="24" height="24" viewBox="0 0 24 24" fill="none" xmlns="http://www.w3.org/2000/svg">
<circle cx="12" cy="12" r="12" fill="#FFCD4E"/>
<path d="M18.8136 15.1823L13.1906 5.44308C12.9421 5.01265 12.497 4.75562 12 4.75562C11.5029 4.75562 11.0578 5.0126 10.8093 5.44308L5.18642 15.1823C4.93786 15.6127 4.93786 16.1266 5.18642 16.5571C5.43498 16.9876 5.88003 17.2446 6.37708 17.2446H17.623C18.12 17.2446 18.5651 16.9876 18.8136 16.5572C19.0621 16.1267 19.0621 15.6127 18.8136 15.1823ZM12 15.6601C11.5066 15.6601 11.1051 15.2587 11.1051 14.7652C11.1051 14.2718 11.5066 13.8703 12 13.8703C12.4935 13.8703 12.895 14.2718 12.895 14.7652C12.8949 15.2587 12.4934 15.6601 12 15.6601ZM12.901 11.8347C12.901 12.3315 12.4968 12.7356 12 12.7356C11.5033 12.7356 11.0991 12.3315 11.0991 11.8347V7.69962C11.0991 7.46392 11.2901 7.27283 11.5258 7.27283H12.4743C12.71 7.27283 12.9011 7.46392 12.9011 7.69962V11.8347H12.901Z" fill="white"/>
</svg>
