<svg width="24" height="24" viewBox="0 0 24 24" fill="none" xmlns="http://www.w3.org/2000/svg">
<path d="M12 3C7.02973 3 3 7.02973 3 12C3 16.9708 7.02973 21 12 21C16.9708 21 21 16.9714 21 12C21 7.02973 16.9708 3 12 3ZM12 19.3125C7.96127 19.3125 4.68753 16.0387 4.68753 12C4.68753 7.96127 7.96127 4.68753 12 4.68753C16.0387 4.68753 19.3125 7.96127 19.3125 12C19.3125 16.0387 16.0387 19.3125 12 19.3125ZM12.0006 6.94705C11.356 6.94705 10.8682 7.28344 10.8682 7.8268V12.8105C10.8682 13.3545 11.3559 13.6897 12.0006 13.6897C12.6294 13.6897 13.1329 13.3404 13.1329 12.8105V7.8268C13.1328 7.29634 12.6294 6.94705 12.0006 6.94705ZM12.0006 14.8125C11.3813 14.8125 10.8772 15.3165 10.8772 15.9363C10.8772 16.5551 11.3813 17.0591 12.0006 17.0591C12.6199 17.0591 13.1233 16.5551 13.1233 15.9363C13.1233 15.3165 12.6199 14.8125 12.0006 14.8125Z" fill="#ffffff"/>
</svg>
