<svg width="21" height="14" viewBox="0 0 21 14" fill="none" xmlns="http://www.w3.org/2000/svg">
<path d="M1.57274 0.25H19.4273C20.1578 0.25 20.75 0.842187 20.75 1.57274V12.1859C20.75 12.9165 20.1578 13.5087 19.4273 13.5087H1.57274C0.842191 13.5087 0.25 12.9165 0.25 12.1859V1.57274C0.25 0.842187 0.842187 0.25 1.57274 0.25Z" fill="#73AF00" stroke="white" stroke-width="0.5"/>
<path d="M10.3117 1.92495L2.68053 6.57002C2.44875 6.71107 2.44875 7.04748 2.68053 7.18857L10.3117 11.8337C10.4274 11.9041 10.5726 11.9041 10.6883 11.8337L18.3195 7.18862C18.5512 7.04756 18.5512 6.71115 18.3195 6.57006L10.6883 1.92495C10.5726 1.85461 10.4274 1.85461 10.3117 1.92495Z" fill="#FFE15A"/>
<path d="M10.5 9.77583C12.0997 9.77583 13.3965 8.47902 13.3965 6.87931C13.3965 5.27961 12.0997 3.98279 10.5 3.98279C8.90029 3.98279 7.60347 5.27961 7.60347 6.87931C7.60347 8.47902 8.90029 9.77583 10.5 9.77583Z" fill="#41479B"/>
<path d="M8.01447 5.39752C7.8778 5.62631 7.77227 5.87495 7.70255 6.13897C9.30826 6.01814 11.6836 6.46734 13.1954 7.93435C13.2941 7.68248 13.3593 7.41415 13.3837 7.13364C11.8226 5.81978 9.66444 5.35257 8.01447 5.39752Z" fill="#F5F5F5"/>
<path d="M10.62 7.86776L10.6971 8.09901L10.9408 8.1009C10.9724 8.10114 10.9855 8.14142 10.9601 8.16016L10.764 8.30499L10.8375 8.53738C10.847 8.56749 10.8128 8.59239 10.7871 8.57401L10.5888 8.43226L10.3905 8.57401C10.3648 8.59235 10.3306 8.56749 10.3401 8.53738L10.4136 8.30499L10.2175 8.16016C10.1922 8.14142 10.2052 8.10114 10.2368 8.1009L10.4805 8.09901L10.5576 7.86776C10.5676 7.83778 10.61 7.83778 10.62 7.86776Z" fill="#F5F5F5"/>
<path d="M11.5674 8.46596L11.6006 8.56547L11.7055 8.56629C11.7191 8.56637 11.7247 8.58372 11.7138 8.5918L11.6294 8.6541L11.661 8.75414C11.6651 8.7671 11.6504 8.77781 11.6393 8.76989L11.5539 8.7089L11.4686 8.76989C11.4576 8.77781 11.4428 8.7671 11.4469 8.75414L11.4785 8.6541L11.3941 8.5918C11.3831 8.58376 11.3888 8.56641 11.4024 8.56629L11.5073 8.56547L11.5405 8.46596C11.5449 8.45304 11.5631 8.45304 11.5674 8.46596Z" fill="#F5F5F5"/>
<path d="M10.2104 7.42848L10.2435 7.52799L10.3485 7.52881C10.362 7.52889 10.3677 7.54624 10.3567 7.55432L10.2723 7.61663L10.304 7.71667C10.308 7.72963 10.2933 7.74034 10.2823 7.73242L10.1969 7.67143L10.1116 7.73242C10.1005 7.74034 10.0858 7.72963 10.0898 7.71667L10.1214 7.61663L10.037 7.55432C10.0261 7.54628 10.0317 7.52893 10.0453 7.52881L10.1502 7.52799L10.1834 7.42848C10.1878 7.41568 10.2061 7.41568 10.2104 7.42848Z" fill="#F5F5F5"/>
<path d="M8.37254 7.30779L8.40572 7.40729L8.51064 7.40811C8.52421 7.40819 8.52987 7.42554 8.51892 7.43362L8.43451 7.49592L8.46614 7.59596C8.4702 7.60892 8.45551 7.61963 8.4444 7.61171L8.35905 7.55072L8.27369 7.61171C8.26266 7.61959 8.24789 7.60892 8.252 7.59596L8.28362 7.49592L8.19921 7.43362C8.18826 7.42558 8.19392 7.40823 8.2075 7.40811L8.31241 7.40729L8.34559 7.30779C8.35002 7.29495 8.36823 7.29495 8.37254 7.30779Z" fill="#F5F5F5"/>
<path d="M9.90997 8.43159L9.94315 8.5311L10.0481 8.53191C10.0616 8.532 10.0673 8.54935 10.0564 8.55743L9.97194 8.61973L10.0036 8.71976C10.0076 8.73272 9.99294 8.74343 9.98187 8.73551L9.89652 8.67452L9.81116 8.73551C9.80013 8.74343 9.78536 8.73272 9.78942 8.71976L9.82105 8.61973L9.73664 8.55743C9.72573 8.54939 9.73135 8.53204 9.74492 8.53191L9.84984 8.5311L9.88302 8.43159C9.88745 8.41872 9.9057 8.41872 9.90997 8.43159Z" fill="#F5F5F5"/>
<path d="M9.06408 7.23834L9.09123 7.31972L9.17704 7.32041C9.18812 7.32049 9.19275 7.33469 9.18385 7.34129L9.11482 7.39223L9.1407 7.47401C9.14406 7.48459 9.132 7.49337 9.12294 7.48689L9.05313 7.43701L8.98332 7.48689C8.97426 7.49337 8.96224 7.48459 8.96556 7.47401L8.99144 7.39223L8.92241 7.34129C8.91351 7.33469 8.91806 7.32049 8.92922 7.32041L9.01503 7.31972L9.04218 7.23834C9.04567 7.22784 9.06055 7.22784 9.06408 7.23834Z" fill="#F5F5F5"/>
<path d="M11.641 5.5584L11.675 5.6602L11.7823 5.66102C11.7962 5.6611 11.8019 5.67886 11.7907 5.68715L11.7044 5.75089L11.7368 5.85322C11.741 5.86647 11.7259 5.87742 11.7146 5.86934L11.6273 5.80691L11.5399 5.86934C11.5286 5.87746 11.5136 5.86643 11.5178 5.85322L11.5501 5.75089L11.4638 5.68715C11.4526 5.6789 11.4584 5.66118 11.4723 5.66102L11.5796 5.6602L11.6135 5.5584C11.618 5.54511 11.6366 5.54511 11.641 5.5584Z" fill="#F5F5F5"/>
<path d="M8.49075 6.74051L8.5179 6.82188L8.60371 6.82258C8.61478 6.82266 8.61942 6.83685 8.61052 6.84346L8.54149 6.8944L8.56737 6.97618C8.57073 6.98676 8.55867 6.99554 8.54961 6.98906L8.4798 6.93918L8.40999 6.98906C8.40093 6.99554 8.38891 6.98676 8.39223 6.97618L8.41811 6.8944L8.34908 6.84346C8.34014 6.83685 8.34473 6.8227 8.35589 6.82258L8.44169 6.82188L8.46885 6.74051C8.47233 6.72997 8.48722 6.72997 8.49075 6.74051Z" fill="#F5F5F5"/>
<path d="M8.90499 7.88752L8.94609 8.01076L9.07603 8.01175C9.09285 8.01187 9.09982 8.03332 9.08628 8.04333L8.98173 8.12052L9.02094 8.24438C9.02603 8.26042 9.00778 8.27371 8.99408 8.26391L8.88834 8.18832L8.7826 8.26391C8.76895 8.27367 8.75065 8.26042 8.75574 8.24438L8.79495 8.12052L8.6904 8.04333C8.67687 8.03332 8.68384 8.01187 8.70066 8.01175L8.83059 8.01076L8.87169 7.88752C8.87714 7.87152 8.8997 7.87152 8.90499 7.88752Z" fill="#F5F5F5"/>
<path d="M12.0957 8.49176L12.1215 8.56932L12.2033 8.56993C12.2139 8.57002 12.2183 8.58351 12.2098 8.58979L12.144 8.63835L12.1687 8.71627C12.1718 8.72636 12.1604 8.73469 12.1517 8.72854L12.0852 8.681L12.0187 8.72854C12.0101 8.73469 11.9986 8.72636 12.0018 8.71627L12.0264 8.63835L11.9607 8.58979C11.9522 8.58351 11.9566 8.57002 11.9672 8.56993L12.0489 8.56932L12.0747 8.49176C12.0781 8.48171 12.0923 8.48171 12.0957 8.49176Z" fill="#F5F5F5"/>
<path d="M12.3817 7.89992L12.4149 7.99942L12.5198 8.00024C12.5333 8.00033 12.539 8.01768 12.5281 8.02576L12.4436 8.08806L12.4753 8.1881C12.4793 8.20106 12.4646 8.21177 12.4536 8.20385L12.3682 8.14286L12.2829 8.20385C12.2718 8.21177 12.2571 8.20106 12.2612 8.1881L12.2928 8.08806L12.2084 8.02576C12.1975 8.01772 12.2031 8.00037 12.2167 8.00024L12.3216 7.99942L12.3548 7.89992C12.3591 7.887 12.3774 7.887 12.3817 7.89992Z" fill="#F5F5F5"/>
</svg>
