<svg width="53" height="38" viewBox="0 0 53 38" fill="none" xmlns="http://www.w3.org/2000/svg">
<path d="M51.7565 11.0833H45.559L43.8365 6.96667C42.0664 2.73422 37.8419 0 33.0729 0H19.9264C15.1585 0 10.933 2.73422 9.1618 6.96667L7.4393 11.0833H1.24285C0.43439 11.0833 -0.158756 11.8097 0.0379244 12.5588L0.659019 14.9338C0.796695 15.4622 1.29357 15.8333 1.86394 15.8333H3.9415C2.55129 16.9941 1.65588 18.6814 1.65588 20.5833V25.3333C1.65588 26.9285 2.29353 28.3684 3.31213 29.4827V34.8333C3.31213 36.5819 4.79551 38 6.62463 38H9.93714C11.7663 38 13.2496 36.5819 13.2496 34.8333V31.6667H39.7497V34.8333C39.7497 36.5819 41.2331 38 43.0622 38H46.3747C48.2038 38 49.6872 36.5819 49.6872 34.8333V29.4827C50.7058 28.3694 51.3434 26.9295 51.3434 25.3333V20.5833C51.3434 18.6814 50.448 16.9941 49.0588 15.8333H51.1364C51.7068 15.8333 52.2037 15.4622 52.3413 14.9338L52.9624 12.5588C53.1581 11.8097 52.5649 11.0833 51.7565 11.0833ZM15.3127 9.31891C16.0673 7.51589 17.8944 6.33333 19.9264 6.33333H33.0729C35.1049 6.33333 36.932 7.51589 37.6866 9.31891L39.7497 14.25H13.2496L15.3127 9.31891ZM9.93714 25.3135C7.94963 25.3135 6.62463 24.0508 6.62463 22.1568C6.62463 20.2627 7.94963 19 9.93714 19C11.9246 19 14.9059 21.8411 14.9059 23.7352C14.9059 25.6292 11.9246 25.3135 9.93714 25.3135ZM43.0622 25.3135C41.0747 25.3135 38.0934 25.6292 38.0934 23.7352C38.0934 21.8411 41.0747 19 43.0622 19C45.0497 19 46.3747 20.2627 46.3747 22.1568C46.3747 24.0508 45.0497 25.3135 43.0622 25.3135Z" fill="#2196F3"/>
</svg>
