<svg width="18" height="12" viewBox="0 0 18 12" fill="none" xmlns="http://www.w3.org/2000/svg">
<path d="M14.5714 4.28571H14.1429L11.2291 0.643393C11.0685 0.442657 10.8647 0.28061 10.633 0.169241C10.4013 0.0578722 10.1475 3.21454e-05 9.89036 0H4.16062C3.45964 0 2.82938 0.426697 2.56902 1.07759L1.28571 4.34625C0.5475 4.5375 0 5.20205 0 6V9C0 9.23679 0.191786 9.42857 0.428571 9.42857H1.71429C1.71429 10.8488 2.86554 12 4.28571 12C5.70589 12 6.85714 10.8488 6.85714 9.42857H10.2857C10.2857 10.8488 11.437 12 12.8571 12C14.2773 12 15.4286 10.8488 15.4286 9.42857H16.7143C16.9511 9.42857 17.1429 9.23679 17.1429 9V6.85714C17.1429 5.43696 15.9916 4.28571 14.5714 4.28571ZM4.28571 10.7143C3.5767 10.7143 3 10.1376 3 9.42857C3 8.71955 3.5767 8.14286 4.28571 8.14286C4.99473 8.14286 5.57143 8.71955 5.57143 9.42857C5.57143 10.1376 4.99473 10.7143 4.28571 10.7143ZM6.21429 4.28571H3.13205L4.16062 1.71429H6.21429V4.28571ZM7.5 4.28571V1.71429H9.89036L11.9475 4.28571H7.5ZM12.8571 10.7143C12.1481 10.7143 11.5714 10.1376 11.5714 9.42857C11.5714 8.71955 12.1481 8.14286 12.8571 8.14286C13.5662 8.14286 14.1429 8.71955 14.1429 9.42857C14.1429 10.1376 13.5662 10.7143 12.8571 10.7143Z" fill="#D8DBDF"/>
</svg>
