<svg width="177" height="177" viewBox="0 0 177 177" fill="none" xmlns="http://www.w3.org/2000/svg">
<path d="M168.413 177H150.742V150.579H153.947H153.983C163.406 150.598 171.039 158.243 171.039 167.671V174.374C171.039 175.825 169.864 177 168.413 177Z" fill="#9BC4F9"/>
<path d="M8.58658 177H26.2579V150.579H23.0525C23.0415 150.579 23.0301 150.579 23.019 150.579C13.5951 150.597 5.96097 158.242 5.96097 167.671V174.374C5.96097 175.825 7.13636 177 8.58658 177Z" fill="#9BC4F9"/>
<path d="M149.323 113.856H139.778C138.303 113.856 137.107 112.66 137.107 111.185C137.107 109.71 138.303 108.514 139.778 108.514H149.324C151.81 108.514 153.832 106.491 153.832 104.005V86.5737C153.832 85.0983 155.028 83.9028 156.503 83.9028C157.978 83.9028 159.174 85.0986 159.174 86.5737V104.005C159.174 109.436 154.755 113.856 149.323 113.856Z" fill="#99B7BF"/>
<path d="M25.31 78.6302C23.8349 78.6302 22.6391 77.4344 22.6391 75.9593V8.31211C22.6391 6.83665 23.8349 5.6412 25.31 5.6412C26.7851 5.6412 27.9809 6.83699 27.9809 8.31211V75.9593C27.9812 77.4344 26.7851 78.6302 25.31 78.6302Z" fill="#A096A3"/>
<path d="M151.69 75.2793C150.215 75.2793 149.019 74.0835 149.019 72.6084V51.0897C149.019 32.569 133.951 17.5009 115.43 17.5009H61.5701C43.049 17.5009 27.9812 32.569 27.9812 51.0897V72.6084C27.9812 74.0838 26.7854 75.2793 25.3103 75.2793C23.8352 75.2793 22.6394 74.0835 22.6394 72.6084V51.0897C22.6394 29.623 40.1036 12.1587 61.5704 12.1587H115.431C136.897 12.1587 154.362 29.623 154.362 51.0897V72.6084C154.361 74.0835 153.165 75.2793 151.69 75.2793Z" fill="#7FB2F9"/>
<path d="M39.6912 92.087H23.354C20.309 92.087 17.8407 89.6187 17.8407 86.5737V66.3574C17.8407 63.3124 20.309 60.8441 23.354 60.8441H39.6916V92.087H39.6912Z" fill="#9BC4F9"/>
<path d="M137.309 92.087H153.646C156.691 92.087 159.16 89.6187 159.16 86.5737V66.3574C159.16 63.3124 156.691 60.8441 153.646 60.8441H137.309V92.087Z" fill="#9BC4F9"/>
<path d="M68.3521 112.087H108.648V160.014H68.3521V112.087Z" fill="#A096A3"/>
<path d="M119.333 101.266V50.8217C119.333 42.8093 115.617 35.6653 109.814 31.0188C109.617 31.027 109.417 31.0315 109.214 31.0315H67.7861C63.5966 31.0315 60.7867 29.2453 59.0274 26.3932C58.9368 26.2467 58.7709 26.1613 58.5998 26.1817C46.1462 27.6506 36.4858 38.2429 36.4858 51.0913V100.995C36.4858 114.749 47.6361 125.899 61.3903 125.899H99.3762C110.776 123.496 119.333 113.381 119.333 101.266Z" fill="#C9E0FD"/>
<path d="M115.43 26.0052H92.1624C106.016 26.0052 117.246 37.2357 117.246 51.089V100.993C117.246 114.747 106.096 125.897 92.3418 125.897H115.609C129.364 125.897 140.514 114.747 140.514 100.993V51.089C140.514 37.2357 129.284 26.0052 115.43 26.0052Z" fill="#BCD6F9"/>
<path d="M138.82 117.396H126.279C122.849 117.396 120.068 114.615 120.068 111.184C120.068 107.754 122.849 104.973 126.279 104.973H138.82C142.25 104.973 145.031 107.754 145.031 111.184C145.031 114.615 142.251 117.396 138.82 117.396Z" fill="#E07F84"/>
<path d="M119.333 50.8197C119.333 50.7793 119.333 50.7388 119.333 50.6984H54.9581C50.4785 50.6984 46.8473 54.3297 46.8473 58.8093V86.4071C46.8473 90.8867 50.4785 94.518 54.9581 94.518H119.333V50.8197Z" fill="#EAF2FF"/>
<path d="M117.246 51.0891V94.5177H122.042C126.521 94.5177 130.153 90.8864 130.153 86.4068V58.809C130.153 54.3293 126.521 50.6981 122.042 50.6981H117.236C117.238 50.8287 117.246 50.958 117.246 51.0891Z" fill="#DBE8F9"/>
<path d="M67.9926 80.4095C72.3012 80.4095 75.794 76.9166 75.794 72.608C75.794 68.2994 72.3012 64.8065 67.9926 64.8065C63.6839 64.8065 60.1911 68.2994 60.1911 72.608C60.1911 76.9166 63.6839 80.4095 67.9926 80.4095Z" fill="#9BC4F9"/>
<path d="M109.007 80.4095C113.316 80.4095 116.809 76.9166 116.809 72.608C116.809 68.2994 113.316 64.8065 109.007 64.8065C104.699 64.8065 101.206 68.2994 101.206 72.608C101.206 76.9166 104.699 80.4095 109.007 80.4095Z" fill="#9BC4F9"/>
<path d="M94.8502 116.146H82.1494C76.9542 116.146 72.7276 111.919 72.7276 106.723C72.7276 105.248 73.9234 104.052 75.3985 104.052C76.8736 104.052 78.0694 105.248 78.0694 106.723C78.0694 108.973 79.8996 110.803 82.1491 110.803H94.8499C97.0994 110.803 98.9299 108.973 98.9299 106.723C98.9299 105.248 100.126 104.052 101.601 104.052C103.076 104.052 104.272 105.248 104.272 106.723C104.272 111.919 100.045 116.146 94.8502 116.146Z" fill="#EAF2FF"/>
<path d="M114.079 35.3633C110.459 30.6635 105.229 27.2684 99.2137 26.0052H61.5701C60.5592 26.0052 59.5646 26.0719 58.5853 26.188C58.988 33.3047 64.8847 38.9521 72.1019 38.9521H104.898C108.441 38.9521 111.666 37.5911 114.079 35.3633Z" fill="#A096A3"/>
<path d="M115.43 26.0052H92.1641C100.595 26.0058 108.048 30.1695 112.595 36.5484C115.925 34.2422 118.172 30.4841 118.415 26.188C117.435 26.0719 116.441 26.0052 115.43 26.0052Z" fill="#89808C"/>
<path d="M25.31 13.891C29.1459 13.891 32.2555 10.7814 32.2555 6.94552C32.2555 3.10962 29.1459 0 25.31 0C21.4741 0 18.3644 3.10962 18.3644 6.94552C18.3644 10.7814 21.4741 13.891 25.31 13.891Z" fill="#B3E59F"/>
<path d="M121.294 141.3H33.9187C27.9176 141.3 23.0529 146.164 23.0529 152.166V177H46.271V176.807C46.271 175.477 47.3492 174.399 48.6795 174.399H128.32C129.65 174.399 130.729 175.477 130.729 176.807V177L132.153 174.73V152.166C132.154 146.167 127.292 141.303 121.294 141.3Z" fill="#C9E0FD"/>
<path d="M143.081 141.3H119.863C125.864 141.3 130.729 146.164 130.729 152.166V177H153.947V152.166C153.947 146.165 149.082 141.3 143.081 141.3Z" fill="#BCD6F9"/>
<path d="M130.729 177V165.687C130.729 163.446 128.913 161.63 126.672 161.63H50.3281C48.0873 161.63 46.271 163.446 46.271 165.687V177H130.729Z" fill="#EAF2FF"/>
</svg>
