<svg width="24" height="24" viewBox="0 0 24 24" fill="none" xmlns="http://www.w3.org/2000/svg">
<circle cx="12" cy="12" r="12" fill="#5CB85C"/>
<path d="M9.99987 14.78L7.21986 12L6.2732 12.94L9.99987 16.6667L17.9999 8.66669L17.0599 7.72669L9.99987 14.78Z" fill="white"/>
<path fill-rule="evenodd" clip-rule="evenodd" d="M7.21986 12L9.99987 14.78L17.0599 7.72669L17.9999 8.66669L9.99987 16.6667L6.2732 12.94L7.21986 12ZM10 14.2124L16.7761 7.4427C16.9329 7.28606 17.187 7.28612 17.3437 7.44283L18.2837 8.38283C18.359 8.45812 18.4013 8.56022 18.4013 8.66669C18.4013 8.77316 18.359 8.87526 18.2837 8.95055L10.2837 16.9506C10.127 17.1073 9.87278 17.1073 9.71601 16.9506L5.98934 13.2239C5.91389 13.1484 5.87158 13.046 5.87177 12.9393C5.87195 12.8326 5.91462 12.7304 5.99035 12.6552L6.93701 11.7152C7.09394 11.5593 7.34734 11.5598 7.50372 11.7162L10 14.2124Z" fill="white"/>
</svg>
