<svg width="22" height="12" viewBox="0 0 22 12" fill="none" xmlns="http://www.w3.org/2000/svg">
<path d="M6.05 12C4.44544 12 2.9066 11.3679 1.772 10.2426C0.637409 9.11742 0 7.5913 0 6C0 4.4087 0.637409 2.88258 1.772 1.75736C2.9066 0.632141 4.44544 0 6.05 0H17.6C18.767 0 19.8861 0.459739 20.7113 1.27808C21.5364 2.09642 22 3.20633 22 4.36364C22 5.52095 21.5364 6.63085 20.7113 7.44919C19.8861 8.26753 18.767 8.72727 17.6 8.72727H8.25C7.52065 8.72727 6.82118 8.43994 6.30546 7.92847C5.78973 7.41701 5.5 6.72332 5.5 6C5.5 5.27668 5.78973 4.58299 6.30546 4.07153C6.82118 3.56006 7.52065 3.27273 8.25 3.27273H16.5V4.90909H8.25C7.95826 4.90909 7.67847 5.02403 7.47218 5.22861C7.26589 5.4332 7.15 5.71067 7.15 6C7.15 6.28933 7.26589 6.5668 7.47218 6.77139C7.67847 6.97597 7.95826 7.09091 8.25 7.09091H17.6C17.9611 7.09091 18.3187 7.02037 18.6524 6.88331C18.986 6.74625 19.2892 6.54536 19.5445 6.29211C19.7999 6.03886 20.0025 5.73821 20.1407 5.40732C20.2789 5.07643 20.35 4.72179 20.35 4.36364C20.35 4.00549 20.2789 3.65084 20.1407 3.31995C20.0025 2.98907 19.7999 2.68841 19.5445 2.43516C19.2892 2.18191 18.986 1.98102 18.6524 1.84396C18.3187 1.70691 17.9611 1.63636 17.6 1.63636H6.05C4.88305 1.63636 3.76389 2.0961 2.93873 2.91444C2.11357 3.73278 1.65 4.84269 1.65 6C1.65 7.15731 2.11357 8.26722 2.93873 9.08556C3.76389 9.9039 4.88305 10.3636 6.05 10.3636H16.5V12H6.05Z" fill="#686B6F"/>
</svg>
