<svg width="34" height="38" viewBox="0 0 34 38" fill="none" xmlns="http://www.w3.org/2000/svg">
<path d="M30.3571 4.75H26.7143V0.890625C26.7143 0.400781 26.3045 0 25.8036 0H22.7679C22.267 0 21.8571 0.400781 21.8571 0.890625V4.75H12.1429V0.890625C12.1429 0.400781 11.733 0 11.2321 0H8.19643C7.69554 0 7.28571 0.400781 7.28571 0.890625V4.75H3.64286C1.6317 4.75 0 6.3457 0 8.3125V34.4375C0 36.4043 1.6317 38 3.64286 38H30.3571C32.3683 38 34 36.4043 34 34.4375V8.3125C34 6.3457 32.3683 4.75 30.3571 4.75ZM29.9018 34.4375H4.09821C3.84777 34.4375 3.64286 34.2371 3.64286 33.9922V11.875H30.3571V33.9922C30.3571 34.2371 30.1522 34.4375 29.9018 34.4375Z" fill="#0275D8"/>
<path d="M18.8 29H16.612V19.8313L14 20.7119V18.7778L18.5653 17H18.8V29Z" fill="#0275D8"/>
</svg>

