<svg width="24" height="24" viewBox="0 0 24 24" fill="none" xmlns="http://www.w3.org/2000/svg">
<path fill-rule="evenodd" clip-rule="evenodd" d="M12.0004 6H19.8227C20.3413 6 20.8387 6.21071 21.2054 6.58579C21.5722 6.96086 21.7782 7.46957 21.7782 8V18C21.7782 18.5304 21.5722 19.0391 21.2054 19.4142C20.8387 19.7893 20.3413 20 19.8227 20H4.17821C3.65957 20 3.16216 19.7893 2.79543 19.4142C2.42869 19.0391 2.22266 18.5304 2.22266 18V6C2.22266 5.46957 2.42869 4.96086 2.79543 4.58579C3.16216 4.21071 3.65957 4 4.17821 4H10.0449L12.0004 6ZM17.556 17H15.8893V16.2H14.2227V14.6H17.556V13.8H15.056C14.835 13.8 14.623 13.7157 14.4667 13.5657C14.3105 13.4157 14.2227 13.2122 14.2227 13V10.6C14.2227 10.3878 14.3105 10.1843 14.4667 10.0343C14.623 9.88429 14.835 9.8 15.056 9.8H15.8893V9H17.556V9.8H19.2227V11.4H15.8893V12.2H18.3893C18.6103 12.2 18.8223 12.2843 18.9786 12.4343C19.1349 12.5843 19.2227 12.7878 19.2227 13V15.4C19.2227 15.6122 19.1349 15.8157 18.9786 15.9657C18.8223 16.1157 18.6103 16.2 18.3893 16.2H17.556V17Z" fill="#D8DBDF"/>
</svg>
