<svg width="16" height="14" viewBox="0 0 16 14" fill="none" xmlns="http://www.w3.org/2000/svg">
<path d="M15.5594 3.88365L14.1187 5.14425C13.9718 5.27277 13.7343 5.27277 13.5874 5.14425L10.1185 2.10897C9.9716 1.98045 9.9716 1.77263 10.1185 1.64411L11.5592 0.383511C12.1436 -0.127837 13.0936 -0.127837 13.6811 0.383511L15.5594 2.02694C16.1469 2.53828 16.1469 3.36957 15.5594 3.88365ZM8.88092 2.72696L0.674291 9.90772L0.0117601 13.2301C-0.0788691 13.6786 0.368027 14.0669 0.88055 13.9903L4.6776 13.4079L12.8842 6.2271C13.0311 6.09858 13.0311 5.89076 12.8842 5.76224L9.41532 2.72696C9.26531 2.59844 9.0278 2.59844 8.88092 2.72696ZM3.87756 9.29246C3.70568 9.14206 3.70568 8.90143 3.87756 8.75103L8.69029 4.53993C8.86217 4.38953 9.13718 4.38953 9.30907 4.53993C9.48095 4.69032 9.48095 4.93096 9.30907 5.08135L4.49634 9.29246C4.32446 9.44286 4.04945 9.44286 3.87756 9.29246ZM2.74939 11.5922H4.24946V12.5848L2.23374 12.8938L1.26182 12.0434L1.61496 10.2796H2.74939V11.5922Z" fill="#fff"/>
</svg>
