<svg width="58" height="58" viewBox="0 0 58 58" fill="none" xmlns="http://www.w3.org/2000/svg">
<path d="M17.7222 33.8333L25.7778 43.5L37.0556 29L51.5556 48.3333H6.44444L17.7222 33.8333ZM58 51.5556V6.44444C58 2.86778 55.1 0 51.5556 0H6.44444C4.73527 0 3.0961 0.678966 1.88753 1.88753C0.678966 3.0961 0 4.73527 0 6.44444V51.5556C0 53.2647 0.678966 54.9039 1.88753 56.1125C3.0961 57.321 4.73527 58 6.44444 58H51.5556C53.2647 58 54.9039 57.321 56.1125 56.1125C57.321 54.9039 58 53.2647 58 51.5556Z" fill="#F7F7F7"/>
</svg>
