<svg width="24" height="24" viewBox="0 0 24 24" fill="none" xmlns="http://www.w3.org/2000/svg">
<path fill-rule="evenodd" clip-rule="evenodd" d="M11.9999 6H19.8222C20.3408 6 20.8382 6.21071 21.205 6.58579C21.5717 6.96086 21.7777 7.46957 21.7777 8V18C21.7777 18.5304 21.5717 19.0391 21.205 19.4142C20.8382 19.7893 20.3408 20 19.8222 20H4.17772C3.65908 20 3.16167 19.7893 2.79494 19.4142C2.4282 19.0391 2.22217 18.5304 2.22217 18V6C2.22217 5.46957 2.4282 4.96086 2.79494 4.58579C3.16167 4.21071 3.65908 4 4.17772 4H10.0444L11.9999 6ZM18.0581 10.2129L18.6192 12.0831C18.9735 12.2371 19.2222 12.5896 19.2222 13V15C19.2222 15.2761 18.9983 15.5 18.7222 15.5H18.722L18.7222 15.5V16C18.7222 16.2761 18.4984 16.5 18.2222 16.5H17.7222C17.446 16.5 17.2222 16.2761 17.2222 16L17.2222 15.5H13.222L13.2222 16C13.2222 16.2761 12.9984 16.5 12.7222 16.5H12.2222C11.9461 16.5 11.7222 16.2761 11.7222 16L11.7222 15.5H11.7222C11.4461 15.5 11.2222 15.2761 11.2222 15V13C11.2222 12.5896 11.4709 12.2371 11.8252 12.0831L12.3863 10.2129C12.5142 9.78638 12.8992 9.5 13.3443 9.5H17.1001C17.5452 9.5 17.9302 9.78638 18.0581 10.2129ZM17.1001 10.5H13.3443L12.8943 12H17.5501L17.1001 10.5ZM12.7222 13.75C12.7222 14.0261 12.946 14.25 13.2222 14.25C13.4983 14.25 13.7222 14.0261 13.7222 13.75C13.7222 13.4738 13.4983 13.25 13.2222 13.25C12.946 13.25 12.7222 13.4738 12.7222 13.75ZM16.7222 13.75C16.7222 14.0261 16.946 14.25 17.2222 14.25C17.4983 14.25 17.7222 14.0261 17.7222 13.75C17.7222 13.4738 17.4983 13.25 17.2222 13.25C16.946 13.25 16.7222 13.4738 16.7222 13.75Z" fill="#D8DBDF"/>
</svg>
