<svg width="22" height="18" viewBox="0 0 22 18" fill="none" xmlns="http://www.w3.org/2000/svg">
<path d="M3.3 14.625L8.25 7.875L12.1 12.9375L14.85 9.5625L18.7 14.625H3.3ZM19.8 2.25H11L8.8 0H2.2C1.61652 0 1.05694 0.237053 0.644365 0.65901C0.231785 1.08097 0 1.65326 0 2.25V15.75C0 16.3467 0.231785 16.919 0.644365 17.341C1.05694 17.7629 1.61652 18 2.2 18H19.8C20.3835 18 20.9431 17.7629 21.3556 17.341C21.7682 16.919 22 16.3467 22 15.75V4.5C22 3.90326 21.7682 3.33097 21.3556 2.90901C20.9431 2.48705 20.3835 2.25 19.8 2.25Z" fill="#686B6F"/>
</svg>
