<svg width="16" height="12" viewBox="0 0 16 12" fill="none" xmlns="http://www.w3.org/2000/svg">
<path d="M7.51066 3.11312L2.57163 7.18098V11.5714C2.57163 11.6851 2.61679 11.7941 2.69717 11.8745C2.77755 11.9548 2.88657 12 3.00025 12L6.00219 11.9922C6.1155 11.9917 6.22397 11.9463 6.30388 11.8659C6.3838 11.7856 6.42867 11.6769 6.42867 11.5636V8.99967C6.42867 8.88599 6.47382 8.77697 6.55421 8.69659C6.63459 8.6162 6.74361 8.57105 6.85729 8.57105H8.57176C8.68544 8.57105 8.79446 8.6162 8.87484 8.69659C8.95522 8.77697 9.00038 8.88599 9.00038 8.99967V11.5617C9.00021 11.6181 9.01116 11.674 9.03262 11.7262C9.05408 11.7783 9.08563 11.8257 9.12545 11.8657C9.16527 11.9056 9.21258 11.9373 9.26467 11.9589C9.31676 11.9806 9.3726 11.9917 9.429 11.9917L12.4299 12C12.5435 12 12.6526 11.9548 12.733 11.8745C12.8133 11.7941 12.8585 11.6851 12.8585 11.5714V7.17803L7.92053 3.11312C7.86248 3.06632 7.79016 3.0408 7.7156 3.0408C7.64103 3.0408 7.56871 3.06632 7.51066 3.11312ZM15.3123 5.87798L13.0728 4.03197V0.321464C13.0728 0.236207 13.0389 0.154441 12.9786 0.0941548C12.9184 0.0338685 12.8366 0 12.7513 0H11.2512C11.1659 0 11.0841 0.0338685 11.0239 0.0941548C10.9636 0.154441 10.9297 0.236207 10.9297 0.321464V2.26659L8.53131 0.293336C8.30115 0.103935 8.01233 0.000378617 7.71426 0.000378617C7.41618 0.000378617 7.12737 0.103935 6.8972 0.293336L0.116176 5.87798C0.0836246 5.90488 0.0566933 5.93794 0.036921 5.97525C0.0171488 6.01257 0.00492324 6.05342 0.000942813 6.09546C-0.00303762 6.1375 0.00130513 6.17992 0.0137229 6.22028C0.0261407 6.26065 0.0463902 6.29817 0.0733143 6.33071L0.756426 7.16116C0.783277 7.19381 0.816303 7.22084 0.853615 7.24071C0.890927 7.26058 0.931791 7.27289 0.973868 7.27695C1.01594 7.281 1.05841 7.27672 1.09883 7.26434C1.13925 7.25197 1.17683 7.23174 1.20942 7.20482L7.51066 2.01478C7.56871 1.96799 7.64103 1.94247 7.7156 1.94247C7.79016 1.94247 7.86248 1.96799 7.92053 2.01478L14.222 7.20482C14.2546 7.23175 14.2921 7.252 14.3325 7.26441C14.3728 7.27683 14.4152 7.28117 14.4573 7.27719C14.4993 7.27321 14.5402 7.26099 14.5775 7.24122C14.6148 7.22144 14.6479 7.19451 14.6748 7.16196L15.3579 6.33151C15.3848 6.29879 15.4049 6.26107 15.4172 6.22053C15.4295 6.17999 15.4336 6.13742 15.4294 6.09528C15.4252 6.05313 15.4126 6.01224 15.3925 5.97495C15.3725 5.93765 15.3452 5.9047 15.3123 5.87798Z" fill="#D8DBDF"/>
</svg>
