<svg width="51" height="38" viewBox="0 0 51 38" fill="none" xmlns="http://www.w3.org/2000/svg">
<path d="M24.5075 9.8582L8.39233 22.7398V36.6427C8.39233 37.0027 8.53967 37.3479 8.80194 37.6025C9.06421 37.857 9.41993 38 9.79083 38L19.5856 37.9754C19.9553 37.9736 20.3092 37.8298 20.57 37.5755C20.8307 37.3211 20.9771 36.9769 20.9771 36.6181V28.4989C20.9771 28.139 21.1245 27.7937 21.3867 27.5392C21.649 27.2846 22.0047 27.1416 22.3756 27.1416H27.9696C28.3405 27.1416 28.6962 27.2846 28.9585 27.5392C29.2208 27.7937 29.3681 28.139 29.3681 28.4989V36.6122C29.3676 36.7908 29.4033 36.9677 29.4733 37.1329C29.5433 37.298 29.6463 37.4482 29.7762 37.5747C29.9061 37.7011 30.0605 37.8015 30.2304 37.87C30.4004 37.9385 30.5826 37.9737 30.7666 37.9737L40.5579 38C40.9288 38 41.2845 37.857 41.5468 37.6025C41.8091 37.3479 41.9564 37.0027 41.9564 36.6427V22.7304L25.8448 9.8582C25.6554 9.71002 25.4194 9.62921 25.1761 9.62921C24.9328 9.62921 24.6969 9.71002 24.5075 9.8582V9.8582ZM49.9628 18.6136L42.6557 12.7679V1.01797C42.6557 0.747988 42.5451 0.489063 42.3484 0.298157C42.1517 0.10725 41.885 0 41.6068 0H36.712C36.4338 0 36.1671 0.10725 35.9703 0.298157C35.7736 0.489063 35.6631 0.747988 35.6631 1.01797V7.17754L27.8376 0.928898C27.0867 0.329126 26.1443 0.00119895 25.1717 0.00119895C24.1992 0.00119895 23.2568 0.329126 22.5058 0.928898L0.380654 18.6136C0.274444 18.6988 0.186572 18.8035 0.12206 18.9216C0.0575466 19.0398 0.0176568 19.1692 0.00466939 19.3023C-0.00831799 19.4354 0.00585157 19.5697 0.0463684 19.6976C0.0868853 19.8254 0.152955 19.9442 0.240804 20.0472L2.46967 22.677C2.55728 22.7804 2.66504 22.866 2.78678 22.9289C2.90852 22.9918 3.04185 23.0308 3.17914 23.0437C3.31643 23.0565 3.45498 23.0429 3.58686 23.0038C3.71874 22.9646 3.84137 22.9005 3.94771 22.8153L24.5075 6.38013C24.6969 6.23195 24.9328 6.15115 25.1761 6.15115C25.4194 6.15115 25.6554 6.23195 25.8448 6.38013L46.4054 22.8153C46.5116 22.9005 46.634 22.9647 46.7657 23.004C46.8974 23.0433 47.0358 23.0571 47.173 23.0444C47.3101 23.0318 47.4434 22.9931 47.5652 22.9305C47.6869 22.8679 47.7948 22.7826 47.8826 22.6795L50.1114 20.0498C50.1992 19.9462 50.265 19.8267 50.305 19.6983C50.3451 19.57 50.3586 19.4352 50.3447 19.3017C50.3309 19.1682 50.2901 19.0388 50.2245 18.9207C50.159 18.8026 50.0701 18.6982 49.9628 18.6136V18.6136Z" fill="#2196F3"/>
</svg>
