<svg width="24" height="24" viewBox="0 0 24 24" fill="none" xmlns="http://www.w3.org/2000/svg">
<path d="M12 4C7.58203 4 4 7.58332 4 12C4 16.4193 7.58203 20 12 20C16.418 20 20 16.4193 20 12C20 7.58332 16.418 4 12 4ZM12 7.54839C12.7483 7.54839 13.3548 8.15497 13.3548 8.90323C13.3548 9.65148 12.7483 10.2581 12 10.2581C11.2517 10.2581 10.6452 9.65148 10.6452 8.90323C10.6452 8.15497 11.2517 7.54839 12 7.54839ZM13.8065 15.7419C13.8065 15.9557 13.6331 16.129 13.4194 16.129H10.5806C10.3669 16.129 10.1935 15.9557 10.1935 15.7419V14.9677C10.1935 14.754 10.3669 14.5806 10.5806 14.5806H10.9677V12.5161H10.5806C10.3669 12.5161 10.1935 12.3428 10.1935 12.129V11.3548C10.1935 11.1411 10.3669 10.9677 10.5806 10.9677H12.6452C12.8589 10.9677 13.0323 11.1411 13.0323 11.3548V14.5806H13.4194C13.6331 14.5806 13.8065 14.754 13.8065 14.9677V15.7419Z" fill="black"/>
</svg>
