<svg width="33" height="37" viewBox="0 0 33 37" fill="none" xmlns="http://www.w3.org/2000/svg">
<path d="M29.4643 4.625H25.9286V0.867188C25.9286 0.390234 25.5308 0 25.0446 0H22.0982C21.6121 0 21.2143 0.390234 21.2143 0.867188V4.625H11.7857V0.867188C11.7857 0.390234 11.3879 0 10.9018 0H7.95536C7.4692 0 7.07143 0.390234 7.07143 0.867188V4.625H3.53571C1.58371 4.625 0 6.17871 0 8.09375V33.5312C0 35.4463 1.58371 37 3.53571 37H29.4643C31.4163 37 33 35.4463 33 33.5312V8.09375C33 6.17871 31.4163 4.625 29.4643 4.625ZM29.0223 33.5312H3.97768C3.7346 33.5312 3.53571 33.3361 3.53571 33.0977V11.5625H29.4643V33.0977C29.4643 33.3361 29.2654 33.5312 29.0223 33.5312Z" fill="#0275D8"/>
<path d="M10.7029 20.9733H11.9681C12.5705 20.9733 13.0169 20.8262 13.3072 20.5321C13.5974 20.238 13.7426 19.8476 13.7426 19.361C13.7426 18.8904 13.5974 18.5241 13.3072 18.262C13.0224 18 12.628 17.869 12.1241 17.869C11.6696 17.869 11.2889 17.992 10.9822 18.238C10.6755 18.4786 10.5221 18.7941 10.5221 19.1845H8.14788C8.14788 18.5749 8.31492 18.0294 8.64902 17.5481C8.98859 17.0615 9.45961 16.6818 10.0621 16.4091C10.67 16.1364 11.3382 16 12.0666 16C13.3318 16 14.3231 16.2968 15.0406 16.8904C15.7581 17.4786 16.1168 18.2914 16.1168 19.3289C16.1168 19.8636 15.9498 20.3556 15.6157 20.8048C15.2816 21.254 14.8435 21.5989 14.3012 21.8396C14.9749 22.0749 15.476 22.4278 15.8047 22.8984C16.1387 23.369 16.3058 23.9251 16.3058 24.5668C16.3058 25.6043 15.9169 26.4358 15.1392 27.0615C14.367 27.6872 13.3428 28 12.0666 28C10.8727 28 9.89503 27.6925 9.13373 27.0775C8.37791 26.4626 8 25.6497 8 24.639H10.3743C10.3743 25.0775 10.5413 25.4358 10.8754 25.7139C11.215 25.992 11.6312 26.131 12.1241 26.131C12.6883 26.131 13.1292 25.9866 13.4468 25.6979C13.77 25.4037 13.9315 25.016 13.9315 24.5348C13.9315 23.369 13.2743 22.7861 11.9598 22.7861H10.7029V20.9733Z" fill="#0275D8"/>
<path d="M26 23.0107C26 24.6257 25.6577 25.861 24.9731 26.7166C24.2885 27.5722 23.2862 28 21.9662 28C20.6627 28 19.6659 27.5802 18.9758 26.7406C18.2857 25.9011 17.9325 24.6979 17.916 23.131V20.9813C17.916 19.3503 18.2611 18.1123 18.9512 17.2674C19.6467 16.4225 20.6463 16 21.9498 16C23.2533 16 24.2501 16.4198 24.9402 17.2594C25.6303 18.0936 25.9836 19.2941 26 20.861V23.0107ZM23.6257 20.6524C23.6257 19.6845 23.4888 18.9813 23.215 18.5428C22.9466 18.0989 22.5249 17.877 21.9498 17.877C21.3911 17.877 20.9776 18.0882 20.7093 18.5107C20.4464 18.9278 20.3067 19.5829 20.2903 20.4759V23.3155C20.2903 24.2674 20.4217 24.9759 20.6846 25.4412C20.953 25.9011 21.3802 26.131 21.9662 26.131C22.5468 26.131 22.9658 25.9091 23.2232 25.4652C23.4806 25.0214 23.6148 24.3422 23.6257 23.4278V20.6524Z" fill="#0275D8"/>
</svg>
