<svg width="21" height="12" viewBox="0 0 21 12" fill="none" xmlns="http://www.w3.org/2000/svg">
<path d="M16.5632 3.99994C16.082 3.99681 15.6235 4.07181 15.194 4.21556L14.1316 2.49996H16.7924C17.2219 2.49996 17.5674 2.16559 17.5674 1.74997V0.749988C17.5674 0.33437 17.2219 0 16.7924 0H15.3297C15.1101 0 14.9002 0.0906236 14.7549 0.246871L13.5439 1.54997L12.8077 0.362494C12.6656 0.137498 12.4138 0 12.1425 0H9.55922C9.27506 0 9.04257 0.224996 9.04257 0.499992V0.999984C9.04257 1.27498 9.27506 1.49998 9.55922 1.49998H11.7034L12.3233 2.49996H7.3602C6.78864 1.7781 5.91032 1.24998 4.13431 1.24998H2.34215C1.90622 1.24998 1.54133 1.59372 1.55102 2.01559C1.55748 2.42184 1.90299 2.74996 2.32601 2.74996H4.13431C4.92544 2.74996 5.38398 3.09058 5.67783 3.52494L5.31294 4.16556C4.89315 4.04368 4.44431 3.98744 3.97931 4.00306C1.80612 4.07806 0.0527114 5.79991 0.00104561 7.90612C-0.0506202 10.1592 1.81904 11.9998 4.13431 11.9998C6.05886 11.9998 7.67665 10.7248 8.13841 8.99985H10.8573C11.2997 8.99985 11.6517 8.64361 11.6323 8.21549C11.5645 6.74364 12.1974 5.28741 13.4471 4.3093L13.8507 4.95929C12.9595 5.69991 12.3944 6.79989 12.4041 8.02799C12.4202 10.203 14.2511 11.9811 16.4986 11.9998C18.8106 12.0217 20.69 10.203 20.6706 7.9655C20.648 5.79053 18.8106 4.01556 16.5632 3.99994ZM4.13431 10.4998C2.71027 10.4998 1.55102 9.37797 1.55102 7.99987C1.55102 6.62177 2.71027 5.49991 4.13431 5.49991C4.26993 5.49991 4.40556 5.50929 4.53795 5.53116L3.19787 7.88737C2.91371 8.38736 3.28828 8.99985 3.87598 8.99985H6.50125C6.10084 9.88109 5.19023 10.4998 4.13431 10.4998ZM19.1142 8.13737C19.0431 9.4061 17.984 10.4311 16.6762 10.4967C15.1876 10.5748 13.9508 9.42485 13.9508 7.99987C13.9508 7.33113 14.2221 6.72489 14.6645 6.27802L16.2596 8.85298C16.4049 9.09048 16.7246 9.16548 16.97 9.02485L17.4124 8.76861C17.6578 8.62799 17.7353 8.31862 17.59 8.08112L16.0207 5.55303C16.1886 5.51866 16.3597 5.50304 16.5341 5.50304C18.0066 5.49991 19.1917 6.69677 19.1142 8.13737Z" fill="#D8DBDF"/>
</svg>
