<svg width="18" height="16" viewBox="0 0 18 16" fill="none" xmlns="http://www.w3.org/2000/svg">
<path d="M17.5043 4.43846L15.8835 5.87914C15.7183 6.02602 15.4511 6.02602 15.2858 5.87914L11.3833 2.41025C11.218 2.26337 11.218 2.02586 11.3833 1.87898L13.0041 0.438299C13.6615 -0.1461 14.7303 -0.1461 15.3913 0.438299L17.5043 2.3165C18.1652 2.9009 18.1652 3.85093 17.5043 4.43846ZM9.99104 3.11653L0.758577 11.3231L0.0132301 15.1201C-0.0887278 15.6327 0.41403 16.0764 0.990619 15.9889L5.2623 15.3233L14.4948 7.11669C14.66 6.96981 14.66 6.7323 14.4948 6.58542L10.5922 3.11653C10.4235 2.96965 10.1563 2.96965 9.99104 3.11653ZM4.36226 10.62C4.16889 10.4481 4.16889 10.1731 4.36226 10.0012L9.77657 5.18849C9.96994 5.01661 10.2793 5.01661 10.4727 5.18849C10.6661 5.36037 10.6661 5.63538 10.4727 5.80726L5.05839 10.62C4.86502 10.7918 4.55563 10.7918 4.36226 10.62ZM3.09306 13.2482H4.78064V14.3826L2.51296 14.7357L1.41955 13.7638L1.81683 11.7481H3.09306V13.2482Z" fill="#63696D"/>
</svg>
