<svg width="16" height="16" viewBox="0 0 16 16" fill="none" xmlns="http://www.w3.org/2000/svg">
<path d="M16 11.2V1.6C16 1.17565 15.8314 0.768687 15.5314 0.468629C15.2313 0.168571 14.8243 0 14.4 0H4.8C4.37565 0 3.96869 0.168571 3.66863 0.468629C3.36857 0.768687 3.2 1.17565 3.2 1.6V11.2C3.2 11.6243 3.36857 12.0313 3.66863 12.3314C3.96869 12.6314 4.37565 12.8 4.8 12.8H14.4C14.8243 12.8 15.2313 12.6314 15.5314 12.3314C15.8314 12.0313 16 11.6243 16 11.2ZM7.2 8L8.824 10.168L11.2 7.2L14.4 11.2H4.8L7.2 8ZM0 3.2V14.4C0 14.8243 0.168571 15.2313 0.468629 15.5314C0.768687 15.8314 1.17565 16 1.6 16H12.8V14.4H1.6V3.2" fill="#686B6F"/>
</svg>
