<svg width="40" height="38" viewBox="0 0 40 38" fill="none" xmlns="http://www.w3.org/2000/svg">
<path d="M37.0824 16.5664C38.7375 16.5664 39.9789 17.7318 39.9789 19.2856C39.9789 20.0626 39.6685 20.7424 39.1513 21.2279C38.6341 21.7135 37.91 22.0049 37.0824 22.0049L23.2208 22.0049L23.2208 35.0182C23.2208 35.7951 22.9105 36.4749 22.3933 36.9605C21.8761 37.4461 21.152 37.7374 20.3244 37.7374C18.6693 37.7374 17.428 36.5721 17.4279 35.0182L17.428 22.0049L3.56637 22.0049C1.91126 22.0049 0.669924 20.8395 0.669924 19.2856C0.669924 17.7318 1.91126 16.5664 3.56637 16.5664L17.428 16.5664L17.4279 3.55307C17.428 1.99923 18.6693 0.833857 20.3244 0.833857C21.9795 0.833858 23.2208 1.99923 23.2208 3.55307L23.2208 16.5664L37.0824 16.5664Z" fill="#666666"/>
</svg>
