<svg width="18" height="16" viewBox="0 0 18 16" fill="none" xmlns="http://www.w3.org/2000/svg">
<path d="M14.08 0H3.52V3.55556H14.08V0ZM14.96 8C14.7266 8 14.5028 7.90635 14.3377 7.73965C14.1727 7.57295 14.08 7.34686 14.08 7.11111C14.08 6.87536 14.1727 6.64927 14.3377 6.48257C14.5028 6.31587 14.7266 6.22222 14.96 6.22222C15.1934 6.22222 15.4172 6.31587 15.5823 6.48257C15.7473 6.64927 15.84 6.87536 15.84 7.11111C15.84 7.34686 15.7473 7.57295 15.5823 7.73965C15.4172 7.90635 15.1934 8 14.96 8ZM12.32 14.2222H5.28V9.77778H12.32V14.2222ZM14.96 4.44444H2.64C1.93983 4.44444 1.26833 4.7254 0.773238 5.22549C0.278142 5.72559 0 6.40387 0 7.11111V12.4444H3.52V16H14.08V12.4444H17.6V7.11111C17.6 6.40387 17.3219 5.72559 16.8268 5.22549C16.3317 4.7254 15.6602 4.44444 14.96 4.44444Z" fill="#686B6F"/>
</svg>
