<svg width="18" height="16" viewBox="0 0 18 16" fill="none" xmlns="http://www.w3.org/2000/svg">
<path d="M14.28 0H3.71995V3.55556H14.28V0ZM15.16 8C14.9266 8 14.7027 7.90635 14.5377 7.73965C14.3727 7.57295 14.28 7.34686 14.28 7.11111C14.28 6.87536 14.3727 6.64927 14.5377 6.48257C14.7027 6.31587 14.9266 6.22222 15.16 6.22222C15.3933 6.22222 15.6172 6.31587 15.7822 6.48257C15.9472 6.64927 16.04 6.87536 16.04 7.11111C16.04 7.34686 15.9472 7.57295 15.7822 7.73965C15.6172 7.90635 15.3933 8 15.16 8ZM12.52 14.2222H5.47995V9.77778H12.52V14.2222ZM15.16 4.44444H2.83995C2.13978 4.44444 1.46829 4.7254 0.973189 5.22549C0.478093 5.72559 0.199951 6.40387 0.199951 7.11111V12.4444H3.71995V16H14.28V12.4444H17.8V7.11111C17.8 6.40387 17.5218 5.72559 17.0267 5.22549C16.5316 4.7254 15.8601 4.44444 15.16 4.44444Z" fill="#686B6F"/>
</svg>
