<svg width="20" height="12" viewBox="0 0 20 12" fill="none" xmlns="http://www.w3.org/2000/svg">
<path d="M3.55645 8.90246L3.72283 8.61486C4.58839 7.11867 6.19839 6.18925 7.92447 6.18925H19.66C19.5584 9.41064 16.9065 12.0001 13.6609 12.0001H6.48499e-05V8.9025H3.55645V8.90246ZM12.3959 8.90243H13.6443V7.75022H12.3959V8.90243ZM9.97629 8.90243H11.2247V7.75022H9.97629V8.90243ZM7.55668 8.90243H8.80508V7.75022H7.55668V8.90243Z" fill="#D8DBDF"/>
<path d="M-0.00052166 1.15221V0H0.242045H1.19765H3.52767L4.50934 1.85944H10.0859C11.1869 1.85944 12.1137 2.61833 12.3714 3.6404H13.1596C14.1173 3.6404 14.9428 4.21485 15.3113 5.03698H7.92433C5.90119 5.03698 4.00719 6.06842 2.90276 7.75023H0.846601V4.7926H-0.00052166V3.6404H0.846601H1.69177H2.16392L0.850326 1.15217H-0.00052166V1.15221Z" fill="#D8DBDF"/>
</svg>
