<svg width="51" height="38" viewBox="0 0 51 38" fill="none" xmlns="http://www.w3.org/2000/svg">
<path d="M39.5741 27.6568L45.1532 22.4606C46.4998 21.2063 45.9454 19.0635 44.1303 18.5202L40.8 17.5232V7.125C40.8 5.81333 39.6583 4.75 38.25 4.75H33.15V1.78125C33.15 0.79748 32.2938 0 31.2375 0H19.7625C18.7062 0 17.85 0.79748 17.85 1.78125V4.75H12.75C11.3417 4.75 10.2 5.81333 10.2 7.125V17.5232L6.8697 18.5202C5.05657 19.0629 4.49868 21.2049 5.84683 22.4606L11.4259 27.6568C10.0269 30.8963 6.82021 33.25 1.9125 33.25C0.856242 33.25 0 34.0475 0 35.0312V36.2188C0 37.2025 0.856242 38 1.9125 38C6.77527 38 10.4788 36.4704 13.3284 33.5917C14.4774 36.1766 17.2142 38 20.4 38H30.6C33.7858 38 36.5226 36.1766 37.6716 33.5917C40.5207 36.4699 44.224 38 49.0875 38C50.1438 38 51 37.2025 51 36.2188V35.0312C51 34.0475 50.1438 33.25 49.0875 33.25C44.2411 33.25 40.9959 30.9491 39.5741 27.6568ZM15.3 9.5H35.7V15.9964L26.2803 13.1765C25.7729 13.0246 25.2271 13.0246 24.7197 13.1765L15.3 15.9964V9.5Z" fill="#2196F3"/>
</svg>
