<svg width="51" height="38" viewBox="0 0 51 38" fill="none" xmlns="http://www.w3.org/2000/svg">
<path d="M39.5748 27.6568L45.1539 22.4606C46.5005 21.2063 45.9462 19.0635 44.131 18.5202L40.8007 17.5232V7.125C40.8007 5.81333 39.659 4.75 38.2507 4.75H33.1507V1.78125C33.1507 0.79748 32.2945 0 31.2382 0H19.7632C18.707 0 17.8507 0.79748 17.8507 1.78125V4.75H12.7507C11.3424 4.75 10.2007 5.81333 10.2007 7.125V17.5232L6.87043 18.5202C5.0573 19.0629 4.49941 21.2049 5.84756 22.4606L11.4266 27.6568C10.0277 30.8963 6.82095 33.25 1.91323 33.25C0.856975 33.25 0.000732422 34.0475 0.000732422 35.0312V36.2188C0.000732422 37.2025 0.856975 38 1.91323 38C6.776 38 10.4796 36.4704 13.3291 33.5917C14.4781 36.1766 17.2149 38 20.4007 38H30.6007C33.7866 38 36.5233 36.1766 37.6724 33.5917C40.5214 36.4699 44.2247 38 49.0882 38C50.1445 38 51.0007 37.2025 51.0007 36.2188V35.0312C51.0007 34.0475 50.1445 33.25 49.0882 33.25C44.2419 33.25 40.9966 30.9491 39.5748 27.6568ZM15.3007 9.5H35.7007V15.9964L26.281 13.1765C25.7736 13.0246 25.2278 13.0246 24.7204 13.1765L15.3007 15.9964V9.5Z" fill="#2196F3"/>
</svg>
