<svg width="24" height="24" viewBox="0 0 24 24" fill="none" xmlns="http://www.w3.org/2000/svg">
<path d="M12 3C7.02973 3 3 7.02973 3 12C3 16.9708 7.02973 21 12 21C16.9708 21 21 16.9714 21 12C21 7.02973 16.9708 3 12 3ZM12 19.3125C7.96127 19.3125 4.68753 16.0387 4.68753 12C4.68753 7.96127 7.96127 4.68753 12 4.68753C16.0387 4.68753 19.3125 7.96127 19.3125 12C19.3125 16.0387 16.0387 19.3125 12 19.3125Z" fill="white"/>
<path d="M8.77793 11.8897L8 12.6357L10.4828 15L16 9.74606L15.2221 9L10.4828 13.5131L8.77793 11.8897Z" fill="white" stroke="white" stroke-linejoin="round"/>
</svg>
