<svg width="24" height="24" viewBox="0 0 24 24" fill="none" xmlns="http://www.w3.org/2000/svg">
<path d="M12 24C18.617 24 24 18.617 24 12C24 5.383 18.617 0 12 0C5.383 0 0 5.383 0 12C0 18.617 5.383 24 12 24ZM12 1.5C17.79 1.5 22.5 6.21 22.5 12C22.5 17.79 17.79 22.5 12 22.5C6.21 22.5 1.5 17.79 1.5 12C1.5 6.21 6.21 1.5 12 1.5Z" fill="#70B9D8"/>
<path d="M8.36119 13.7582L9.68476 13.2029L9.31335 13.5625C9.19433 13.6775 9.12764 13.8332 9.12764 13.9947V16.388C9.12764 16.936 9.81307 17.2018 10.2081 16.8202L11.5368 15.5367L14.4321 16.9351C14.8069 17.1162 15.2601 16.9017 15.3378 16.4972L16.9897 7.72233C17.0767 7.25019 16.5955 6.86857 16.1355 7.04307L5.40172 11.1015C4.92057 11.2825 4.85642 11.9186 5.29198 12.1868L7.76862 13.7133C7.94588 13.8226 8.16957 13.8397 8.36119 13.7582ZM15.5412 8.58262L14.2438 15.4771L11.6946 14.2466C11.4481 14.1276 11.1544 14.1773 10.9644 14.3616L10.3938 14.9129V14.2499L12.9321 11.7979C13.4242 11.3225 12.8705 10.538 12.2323 10.8047L8.1662 12.5089L7.02326 11.8044L15.5412 8.58262Z" fill="#70B9D8"/>
<circle cx="12" cy="12" r="10.75" stroke="#70B9D8" stroke-width="2.5"/>
</svg>
