<svg width="40" height="40" viewBox="0 0 40 40" fill="none" xmlns="http://www.w3.org/2000/svg">
<path d="M19.5111 10.0116C14.1861 10.2631 9.98389 14.6619 10 19.9499C10.005 21.5605 10.397 23.0806 11.0884 24.4238L10.0268 29.5357C9.96933 29.8122 10.2208 30.0544 10.4977 29.9893L15.5476 28.8026C16.845 29.4436 18.3022 29.8139 19.8445 29.8372C25.2871 29.9197 29.8254 25.633 29.995 20.2363C30.1769 14.4514 25.3635 9.7351 19.5111 10.0116ZM25.5367 25.4111C24.0578 26.8781 22.0915 27.686 20 27.686C18.7754 27.686 17.6029 27.4134 16.5151 26.8759L15.8119 26.5284L12.7158 27.256L13.3675 24.118L13.021 23.445C12.4563 22.348 12.17 21.1617 12.17 19.9192C12.17 17.8446 12.9844 15.8942 14.4633 14.4272C15.929 12.9734 17.9274 12.1524 20.0002 12.1524C22.0916 12.1524 24.0578 12.9603 25.5367 14.4272C27.0156 15.8941 27.8301 17.8445 27.8301 19.919C27.8301 21.9751 27.0024 23.9573 25.5367 25.4111Z" fill="#63696D"/>
<path d="M24.8531 22.0703L22.9161 21.5186C22.6615 21.4461 22.3872 21.5178 22.2017 21.7053L21.728 22.184C21.5283 22.3859 21.2252 22.4507 20.9609 22.3446C20.0446 21.9768 18.1171 20.2769 17.6248 19.4266C17.4828 19.1813 17.5063 18.8746 17.6807 18.6508L18.0942 18.1201C18.2562 17.9122 18.2904 17.633 18.1833 17.3926L17.3683 15.5644C17.1731 15.1265 16.609 14.999 16.2404 15.3082C15.6998 15.7617 15.0584 16.4509 14.9804 17.2145C14.8429 18.5606 15.425 20.2576 17.6259 22.2952C20.1686 24.6493 22.2048 24.9603 23.5306 24.6417C24.2825 24.461 24.8835 23.7368 25.2627 23.1438C25.5213 22.7394 25.3171 22.2025 24.8531 22.0703Z" fill="#63696D"/>
</svg>
