<svg width="33" height="38" viewBox="0 0 33 38" fill="none" xmlns="http://www.w3.org/2000/svg">
<path d="M10.9018 21.375H7.95536C7.4692 21.375 7.07143 20.9742 7.07143 20.4844V17.5156C7.07143 17.0258 7.4692 16.625 7.95536 16.625H10.9018C11.3879 16.625 11.7857 17.0258 11.7857 17.5156V20.4844C11.7857 20.9742 11.3879 21.375 10.9018 21.375ZM18.8571 20.4844V17.5156C18.8571 17.0258 18.4594 16.625 17.9732 16.625H15.0268C14.5406 16.625 14.1429 17.0258 14.1429 17.5156V20.4844C14.1429 20.9742 14.5406 21.375 15.0268 21.375H17.9732C18.4594 21.375 18.8571 20.9742 18.8571 20.4844ZM25.9286 20.4844V17.5156C25.9286 17.0258 25.5308 16.625 25.0446 16.625H22.0982C21.6121 16.625 21.2143 17.0258 21.2143 17.5156V20.4844C21.2143 20.9742 21.6121 21.375 22.0982 21.375H25.0446C25.5308 21.375 25.9286 20.9742 25.9286 20.4844ZM18.8571 27.6094V24.6406C18.8571 24.1508 18.4594 23.75 17.9732 23.75H15.0268C14.5406 23.75 14.1429 24.1508 14.1429 24.6406V27.6094C14.1429 28.0992 14.5406 28.5 15.0268 28.5H17.9732C18.4594 28.5 18.8571 28.0992 18.8571 27.6094ZM11.7857 27.6094V24.6406C11.7857 24.1508 11.3879 23.75 10.9018 23.75H7.95536C7.4692 23.75 7.07143 24.1508 7.07143 24.6406V27.6094C7.07143 28.0992 7.4692 28.5 7.95536 28.5H10.9018C11.3879 28.5 11.7857 28.0992 11.7857 27.6094ZM25.9286 27.6094V24.6406C25.9286 24.1508 25.5308 23.75 25.0446 23.75H22.0982C21.6121 23.75 21.2143 24.1508 21.2143 24.6406V27.6094C21.2143 28.0992 21.6121 28.5 22.0982 28.5H25.0446C25.5308 28.5 25.9286 28.0992 25.9286 27.6094ZM33 8.3125V34.4375C33 36.4043 31.4163 38 29.4643 38H3.53571C1.58371 38 0 36.4043 0 34.4375V8.3125C0 6.3457 1.58371 4.75 3.53571 4.75H7.07143V0.890625C7.07143 0.400781 7.4692 0 7.95536 0H10.9018C11.3879 0 11.7857 0.400781 11.7857 0.890625V4.75H21.2143V0.890625C21.2143 0.400781 21.6121 0 22.0982 0H25.0446C25.5308 0 25.9286 0.400781 25.9286 0.890625V4.75H29.4643C31.4163 4.75 33 6.3457 33 8.3125ZM29.4643 33.9922V11.875H3.53571V33.9922C3.53571 34.2371 3.7346 34.4375 3.97768 34.4375H29.0223C29.2654 34.4375 29.4643 34.2371 29.4643 33.9922Z" fill="#0275D8"/>
</svg>
